<mxfile host="Electron" agent="Mozilla/5.0 (X11; Linux x86_64) AppleWebKit/537.36 (KHTML, like Gecko) draw.io/24.7.5 Chrome/126.0.6478.183 Electron/31.3.0 Safari/537.36" version="24.7.5">
  <diagram name="Page-1" id="TbVd4gScZROXGliH3oIf">
    <mxGraphModel dx="1434" dy="879" grid="1" gridSize="10" guides="1" tooltips="1" connect="1" arrows="1" fold="1" page="1" pageScale="1" pageWidth="850" pageHeight="1100" math="0" shadow="0">
      <root>
        <mxCell id="0" />
        <mxCell id="1" parent="0" />
        <mxCell id="PN_kPtdczEujCwIuME3x-1" value="&lt;font&gt;Yarc CPU&lt;/font&gt;" style="rounded=0;whiteSpace=wrap;html=1;fillColor=#ffe6cc;strokeColor=#d79b00;fontFamily=Iosevka Term extended;" parent="1" vertex="1">
          <mxGeometry x="215" y="40" width="125" height="80" as="geometry" />
        </mxCell>
        <mxCell id="PN_kPtdczEujCwIuME3x-2" value="Instr" style="rounded=0;whiteSpace=wrap;html=1;fillColor=#dae8fc;strokeColor=#6c8ebf;fontFamily=Iosevka Term extended;" parent="1" vertex="1">
          <mxGeometry x="229" y="100" width="31" height="20" as="geometry" />
        </mxCell>
        <mxCell id="PN_kPtdczEujCwIuME3x-3" value="Data" style="rounded=0;whiteSpace=wrap;html=1;fillColor=#dae8fc;strokeColor=#6c8ebf;fontFamily=Iosevka Term extended;" parent="1" vertex="1">
          <mxGeometry x="299" y="100" width="31" height="20" as="geometry" />
        </mxCell>
        <mxCell id="PN_kPtdczEujCwIuME3x-4" value="WB Xbar" style="rounded=0;whiteSpace=wrap;html=1;fillColor=#dae8fc;strokeColor=#6c8ebf;fontFamily=Iosevka Term extended;" parent="1" vertex="1">
          <mxGeometry x="269" y="419" width="251" height="40" as="geometry" />
        </mxCell>
        <mxCell id="PN_kPtdczEujCwIuME3x-6" value="Timer" style="rounded=0;whiteSpace=wrap;html=1;fontFamily=Iosevka Term extended;direction=east;rotation=90;fillColor=#f8cecc;strokeColor=#b85450;" parent="1" vertex="1">
          <mxGeometry x="538" y="100" width="70" height="30" as="geometry" />
        </mxCell>
        <mxCell id="PN_kPtdczEujCwIuME3x-7" value="GPIO" style="rounded=0;whiteSpace=wrap;html=1;fontFamily=Iosevka Term extended;direction=east;rotation=90;fillColor=#f8cecc;strokeColor=#b85450;" parent="1" vertex="1">
          <mxGeometry x="500" y="100" width="70" height="30" as="geometry" />
        </mxCell>
        <mxCell id="PN_kPtdczEujCwIuME3x-8" value="UART" style="rounded=0;whiteSpace=wrap;html=1;fontFamily=Iosevka Term extended;direction=east;rotation=90;fillColor=#f8cecc;strokeColor=#b85450;" parent="1" vertex="1">
          <mxGeometry x="463" y="100" width="70" height="30" as="geometry" />
        </mxCell>
        <mxCell id="PN_kPtdczEujCwIuME3x-9" value="LED driver" style="rounded=0;whiteSpace=wrap;html=1;fontFamily=Iosevka Term extended;direction=east;rotation=90;fillColor=#f8cecc;strokeColor=#b85450;" parent="1" vertex="1">
          <mxGeometry x="425" y="100" width="70" height="30" as="geometry" />
        </mxCell>
        <mxCell id="PN_kPtdczEujCwIuME3x-21" value="Dual-Port 32KiB Instruction Memory" style="rounded=0;whiteSpace=wrap;html=1;fontFamily=Iosevka Term extended;fillColor=#fff2cc;strokeColor=#d6b656;" parent="1" vertex="1">
          <mxGeometry x="224" y="503" width="88" height="60" as="geometry" />
        </mxCell>
        <mxCell id="PN_kPtdczEujCwIuME3x-22" value="32KiB&lt;div&gt;Data&lt;/div&gt;&lt;div&gt;Memory&lt;/div&gt;" style="rounded=0;whiteSpace=wrap;html=1;fontFamily=Iosevka Term extended;fillColor=#fff2cc;strokeColor=#d6b656;" parent="1" vertex="1">
          <mxGeometry x="281" y="276.99" width="65" height="60" as="geometry" />
        </mxCell>
        <mxCell id="PN_kPtdczEujCwIuME3x-27" value="&lt;font face=&quot;Iosevka Term extended&quot;&gt;32&amp;lt;-&amp;gt;128&lt;/font&gt;&lt;div&gt;&lt;font face=&quot;Iosevka Term extended&quot;&gt;bus converter&lt;/font&gt;&lt;/div&gt;" style="rounded=0;whiteSpace=wrap;html=1;fillColor=#dae8fc;strokeColor=#6c8ebf;" parent="1" vertex="1">
          <mxGeometry x="550" y="414" width="74" height="50" as="geometry" />
        </mxCell>
        <mxCell id="PN_kPtdczEujCwIuME3x-28" value="" style="endArrow=none;html=1;rounded=0;exitX=0;exitY=0.5;exitDx=0;exitDy=0;entryX=1;entryY=0.5;entryDx=0;entryDy=0;strokeWidth=2;fontFamily=Iosevka Term extended;" parent="1" source="PN_kPtdczEujCwIuME3x-27" target="PN_kPtdczEujCwIuME3x-4" edge="1">
          <mxGeometry width="50" height="50" relative="1" as="geometry">
            <mxPoint x="531" y="439" as="sourcePoint" />
            <mxPoint x="561" y="530" as="targetPoint" />
          </mxGeometry>
        </mxCell>
        <mxCell id="PN_kPtdczEujCwIuME3x-30" value="Wide Xbar" style="rounded=0;whiteSpace=wrap;html=1;fillColor=#dae8fc;strokeColor=#6c8ebf;fontFamily=Iosevka Term extended;" parent="1" vertex="1">
          <mxGeometry x="650" y="419" width="90" height="40" as="geometry" />
        </mxCell>
        <mxCell id="PN_kPtdczEujCwIuME3x-31" value="" style="endArrow=none;html=1;rounded=0;exitX=0;exitY=0.5;exitDx=0;exitDy=0;entryX=1;entryY=0.5;entryDx=0;entryDy=0;strokeWidth=2;fontFamily=Iosevka Term extended;" parent="1" source="PN_kPtdczEujCwIuME3x-30" target="PN_kPtdczEujCwIuME3x-27" edge="1">
          <mxGeometry width="50" height="50" relative="1" as="geometry">
            <mxPoint x="659" y="498.8" as="sourcePoint" />
            <mxPoint x="640" y="498.8" as="targetPoint" />
          </mxGeometry>
        </mxCell>
        <mxCell id="PN_kPtdczEujCwIuME3x-32" value="512 MiB DDR3 Memory" style="rounded=0;whiteSpace=wrap;html=1;fontFamily=Iosevka Term extended;fillColor=#fff2cc;strokeColor=#d6b656;" parent="1" vertex="1">
          <mxGeometry x="652" y="504" width="88" height="60" as="geometry" />
        </mxCell>
        <mxCell id="PN_kPtdczEujCwIuME3x-34" value="" style="endArrow=none;html=1;rounded=0;exitX=0.5;exitY=1;exitDx=0;exitDy=0;entryX=0.5;entryY=0;entryDx=0;entryDy=0;strokeWidth=2;fontFamily=Iosevka Term extended;" parent="1" source="PN_kPtdczEujCwIuME3x-30" target="PN_kPtdczEujCwIuME3x-32" edge="1">
          <mxGeometry width="50" height="50" relative="1" as="geometry">
            <mxPoint x="577.66" y="504" as="sourcePoint" />
            <mxPoint x="577.66" y="549" as="targetPoint" />
          </mxGeometry>
        </mxCell>
        <mxCell id="PN_kPtdczEujCwIuME3x-35" value="128-bit" style="edgeLabel;html=1;align=center;verticalAlign=middle;resizable=0;points=[];fontFamily=Iosevka Term extended;" parent="PN_kPtdczEujCwIuME3x-34" vertex="1" connectable="0">
          <mxGeometry x="0.0111" relative="1" as="geometry">
            <mxPoint as="offset" />
          </mxGeometry>
        </mxCell>
        <mxCell id="PN_kPtdczEujCwIuME3x-36" value="&lt;font&gt;Video Core&lt;/font&gt;" style="rounded=0;whiteSpace=wrap;html=1;fillColor=#ffe6cc;strokeColor=#d79b00;fontFamily=Iosevka Term extended;" parent="1" vertex="1">
          <mxGeometry x="661" y="159" width="113" height="60" as="geometry" />
        </mxCell>
        <mxCell id="PN_kPtdczEujCwIuME3x-37" value="" style="endArrow=none;html=1;rounded=0;exitX=0.5;exitY=1;exitDx=0;exitDy=0;entryX=0.75;entryY=0;entryDx=0;entryDy=0;strokeWidth=2;fontFamily=Iosevka Term extended;edgeStyle=orthogonalEdgeStyle;" parent="1" source="PN_kPtdczEujCwIuME3x-36" target="PN_kPtdczEujCwIuME3x-30" edge="1">
          <mxGeometry width="50" height="50" relative="1" as="geometry">
            <mxPoint x="790" y="255" as="sourcePoint" />
            <mxPoint x="791" y="300" as="targetPoint" />
          </mxGeometry>
        </mxCell>
        <mxCell id="PN_kPtdczEujCwIuME3x-38" value="128-bit" style="edgeLabel;html=1;align=center;verticalAlign=middle;resizable=0;points=[];fontFamily=Iosevka Term extended;" parent="PN_kPtdczEujCwIuME3x-37" vertex="1" connectable="0">
          <mxGeometry x="0.0111" relative="1" as="geometry">
            <mxPoint x="-12" y="-48" as="offset" />
          </mxGeometry>
        </mxCell>
        <mxCell id="PN_kPtdczEujCwIuME3x-39" value="Peripheral Xbar" style="rounded=0;whiteSpace=wrap;html=1;fillColor=#dae8fc;strokeColor=#6c8ebf;rotation=0;fontFamily=Iosevka Term extended;direction=east;" parent="1" vertex="1">
          <mxGeometry x="438" y="169" width="162" height="40" as="geometry" />
        </mxCell>
        <mxCell id="PN_kPtdczEujCwIuME3x-40" value="" style="endArrow=none;html=1;rounded=0;entryX=0.835;entryY=0;entryDx=0;entryDy=0;strokeWidth=2;entryPerimeter=0;fontFamily=Iosevka Term extended;exitX=0.25;exitY=1;exitDx=0;exitDy=0;" parent="1" edge="1">
          <mxGeometry width="50" height="50" relative="1" as="geometry">
            <mxPoint x="497.67" y="209" as="sourcePoint" />
            <mxPoint x="497.75500000000005" y="419" as="targetPoint" />
          </mxGeometry>
        </mxCell>
        <mxCell id="PN_kPtdczEujCwIuME3x-41" value="32-bit" style="edgeLabel;html=1;align=center;verticalAlign=middle;resizable=0;points=[];fontFamily=Iosevka Term extended;" parent="PN_kPtdczEujCwIuME3x-40" vertex="1" connectable="0">
          <mxGeometry x="-0.1861" y="-2" relative="1" as="geometry">
            <mxPoint as="offset" />
          </mxGeometry>
        </mxCell>
        <mxCell id="PN_kPtdczEujCwIuME3x-42" value="" style="endArrow=none;html=1;rounded=0;exitX=1;exitY=0.5;exitDx=0;exitDy=0;entryX=0.136;entryY=0.003;entryDx=0;entryDy=0;strokeWidth=2;entryPerimeter=0;fontFamily=Iosevka Term extended;" parent="1" source="PN_kPtdczEujCwIuME3x-9" target="PN_kPtdczEujCwIuME3x-39" edge="1">
          <mxGeometry width="50" height="50" relative="1" as="geometry">
            <mxPoint x="425" y="133" as="sourcePoint" />
            <mxPoint x="425" y="169" as="targetPoint" />
          </mxGeometry>
        </mxCell>
        <mxCell id="PN_kPtdczEujCwIuME3x-44" value="" style="endArrow=none;html=1;rounded=0;exitX=1;exitY=0.5;exitDx=0;exitDy=0;entryX=0.372;entryY=0.009;entryDx=0;entryDy=0;strokeWidth=2;entryPerimeter=0;fontFamily=Iosevka Term extended;" parent="1" source="PN_kPtdczEujCwIuME3x-8" target="PN_kPtdczEujCwIuME3x-39" edge="1">
          <mxGeometry width="50" height="50" relative="1" as="geometry">
            <mxPoint x="490" y="160.5" as="sourcePoint" />
            <mxPoint x="490" y="179.5" as="targetPoint" />
          </mxGeometry>
        </mxCell>
        <mxCell id="PN_kPtdczEujCwIuME3x-45" value="" style="endArrow=none;html=1;rounded=0;exitX=1;exitY=0.5;exitDx=0;exitDy=0;entryX=0.601;entryY=0.022;entryDx=0;entryDy=0;strokeWidth=2;entryPerimeter=0;fontFamily=Iosevka Term extended;" parent="1" source="PN_kPtdczEujCwIuME3x-7" target="PN_kPtdczEujCwIuME3x-39" edge="1">
          <mxGeometry width="50" height="50" relative="1" as="geometry">
            <mxPoint x="508" y="160" as="sourcePoint" />
            <mxPoint x="508" y="179" as="targetPoint" />
          </mxGeometry>
        </mxCell>
        <mxCell id="PN_kPtdczEujCwIuME3x-46" value="" style="endArrow=none;html=1;rounded=0;exitX=1;exitY=0.5;exitDx=0;exitDy=0;entryX=0.835;entryY=0.022;entryDx=0;entryDy=0;strokeWidth=2;entryPerimeter=0;fontFamily=Iosevka Term extended;" parent="1" source="PN_kPtdczEujCwIuME3x-6" target="PN_kPtdczEujCwIuME3x-39" edge="1">
          <mxGeometry width="50" height="50" relative="1" as="geometry">
            <mxPoint x="545" y="160" as="sourcePoint" />
            <mxPoint x="545" y="180" as="targetPoint" />
          </mxGeometry>
        </mxCell>
        <mxCell id="PN_kPtdczEujCwIuME3x-47" value="&lt;font style=&quot;font-size: 7px;&quot;&gt;data fetch&lt;/font&gt;" style="rounded=0;whiteSpace=wrap;html=1;fillColor=#dae8fc;strokeColor=#6c8ebf;fontFamily=Iosevka Term extended;" parent="1" vertex="1">
          <mxGeometry x="695" y="201" width="44" height="18" as="geometry" />
        </mxCell>
        <mxCell id="PN_kPtdczEujCwIuME3x-48" value="&lt;font style=&quot;font-size: 7px;&quot;&gt;config&lt;/font&gt;" style="rounded=0;whiteSpace=wrap;html=1;fillColor=#dae8fc;strokeColor=#6c8ebf;fontFamily=Iosevka Term extended;rotation=90;" parent="1" vertex="1">
          <mxGeometry x="645" y="182.5" width="44" height="13" as="geometry" />
        </mxCell>
        <mxCell id="PN_kPtdczEujCwIuME3x-49" value="" style="endArrow=none;html=1;rounded=0;exitX=0.5;exitY=1;exitDx=0;exitDy=0;entryX=1;entryY=0.5;entryDx=0;entryDy=0;strokeWidth=2;fontFamily=Iosevka Term extended;" parent="1" source="PN_kPtdczEujCwIuME3x-48" target="PN_kPtdczEujCwIuME3x-39" edge="1">
          <mxGeometry width="50" height="50" relative="1" as="geometry">
            <mxPoint x="610" y="209" as="sourcePoint" />
            <mxPoint x="610" y="229" as="targetPoint" />
          </mxGeometry>
        </mxCell>
        <mxCell id="PN_kPtdczEujCwIuME3x-52" value="" style="shape=image;verticalLabelPosition=bottom;labelBackgroundColor=default;verticalAlign=top;aspect=fixed;imageAspect=0;image=data:image/png,iVBORw0KGgoAAAANSUhEUgAAAgAAAAIACAYAAAD0eNT6AAAgAElEQVR4nOzde3wU5b0/8O/zzOxmc98sSwhJWEIIECGJgIgUECnHWkstFbQKVavWctDTWuvxcLT1VGo9rXpQqVILFBFEA6KAiIgUKDcBIQZEgiGEkOsm2Ww2m93N7mYvszO/P9qeX0/rBUKSmdl83q8Xf+irhE9l55nPPpcZIgAAAAAAAAAAAAAAAAAAAAAAAAAAAAAAAAAAAAAAAAAAAAAAAAAAAAAAAAAAAAAAAAAAAAAAAAAAAAAAAAAAAAAAAAAAAAAAAAAAAAAAAAAAAAAAAAAAAAAAAAAAAAAAAAAAAAAAAAAAAAAAAAAAAAAAAAAAAAAAAAAAAAAAAAAAAAAAAAAAAAAAAAAAAAAAAAAAAAAAAAAAAAAAAAAAAAAAAAAAAAAAAAAAAAAAAAAAAAAAAAAAAAAAAAAAAAAAAAAAAAAAAAAAAAAAAAAAAAAAAAAAAAAAAAAAAAAAAAAAAAAAAAAAAAAAAAAAAAAAAAAAAAAAAAAAAAAAAACA3sHUDgCgVdHGN40k+S2K97Mk2XPSrAQbTBTr5mrnAlCFKSvEk/MbE6a941Q7CvQOUe0AAFrFiJIUokIishHRGGKijcRUCzExjZSohWLdaaTETESEUgDxT6F6IvoNEW1VOQn0EhQAgC8g2uZ7iOjA3/455q0wKcHmXNnzSYHccWys4q8eQ3Ikj5ghm+SQlWKhNCLFSLiuIC4pDrUTQO/CQAVwkYT04hAR1fz11y450GiUvadz5c5PCmXnn0uUbvsoYkIBKVI+xbrNpMSSCLMDAKBRKAAAPcSTbREiqv3rr50xb0WK7PhTUcy5b7ISqLuCiMaSHMknKWhWSE5iKAMAoCEoAAC9REgv9hPRMSI6FvNWpMmtO4tizj9PUkKOK5kcK6Kot4CUqJlQBABAA1AAAPqAkF7sI6KjRHRUat2ZK7sOF8Va37+W5NhkkrtHkxS0EMlYIgAA1aAAAPQxcehsOxHZY/6GA3LzO0Wx1ncnK1Hv1RT1ziApkKmQguUBAOh3KAAA/URIGR4ionIiKo82vlkQu/CHj5So90omR6dTpDNPITkFRQAA+gsKAIAKDLb5NURUE3MdyZTOvzRD9tdcyyT/DRT15hIpKWrnA4D4hwIAoCLBOs1JRJtjriOHpc9+/bEieb+uhNuvJ8lvISIUAQDoMygAABogWKc5iOgNqfHNMun8so8oIfObSnfzDJLDmWpnA4D4hAIAoCGibX41EVVHq5aeitk3Hyc5crvS3VJIDLMBANC7UAAANMhQuLg8FmiolM48UUlC4reVcNsckvy5aucCgPiBAgCgUULy8KDUunOnIgUrY+df+ISUwQuUQN1kwt4AAOgFKAAAGiYOnU1yxFPPhMT1snNftcyE25Vg420kR6xqZwMAfUMBANA4bjQTEUWk1p2HWXKePVa7+qxCtIhCbXnYGwAAPYUCAKAT4tDZciziqVUCDa/K/uoWMqTdofjP30BYEgCAHkABANAR4S+zAcHo2aU7lLCjRSbmUIL1WBIAgEuGAgCgQ4YrFkek1p3lZMxwy84/Nyvdjvso6s5XOxcA6AcKAIBOiUNnSzFvRQ0RvSq37XEoRI9S1J1NWBIAgIuAAgCgY0J6sSxHPI6o59PNxAx+MqQuVIINUwglAAC+AgoAgM799ZSAL3zywR0Ubg8SEaEEAMBXQQEAiBMJE5cHI5/8dN/f/lkJ1k8hYigBAPC5UAAA4ohxwkv/twQE6qcQQwkAgH+GAgAQZ/6hBHAl2IDHBwPAP+FqBwCA3mec8FKQmTL3seT8ZSxpeBkR+dXOBADaggIAEKf+twSkjFzGkmwoAQDwf6AAAMQx44SXgixh8D6WaHuZmbKr1M4DANqBAgAQ54wTXgqylPzdZBy0ggwZ9WrnAQBtQAEAGADEK37hZ0nDNjNuWE7c6FY7DwCoDwUAYADgxgwSxy/z8Zyb3yRjxqtEFFQ7EwCoC8cAAQYIwWimmPe0g5jhddmxM0sJ1M0joiS1cwGAOjADADCACOklMk8dXcnSijZSYs4ZtfMAgHpQAAAGGNE2X+IZV+1jxkFryGCuVzsPAKgDBQBgABJsC0JC/qJtxI1bCfsBAAYkFACAAYgbzcTSxjiFnFvfYUl5ewklAGDAQQEAGKDE9GIiIfEoCcnvkSHdpXYeAOhfKAAAA5jxiv+UxfFLtxIzYCkAYIDBMcA4dLz8PFVVt3CftxsFj4iumpgvC8L//09xzaQCWcU4miNmXOWOVi19O9b0Vr7S3Xg94WggwICAAhCHIpFYdjAYntIV6M5VO4sWXKhrK2eMyUREgsClMRP/vVIQOI0ZNVTOSE+mSRPzpZxsC40amSWPLcwdkOXAULj4aGjv1X8mIWkSxYIoAAADAApAHDp1ui73nffKFzW3dt6gdhaNkYmohoiIFJIkSa4ORySPu9N/IhaTG5vsHVXTb1jiGFeYK1137VhpfPFwaSAVAsOVyzZHPvnxOIp1f59ISVE7DwD0LRQAGEg4EY0mIorJMlXXtI4lIir/pPYeIiXCOa/NSE92BbsjZxoa2w82NLpOfnf+c46rJ+ZHvjGrJBLvSwfC4OktkbJ798Tcx6dSpKNI7TwA0LdQAACIiIgZZVkp7Oj0U8cJ//SyExd+YDSItTk5ltp2V9eHu/ed3nvbD35X/42vF4e+9Y3xkdzcQXFZBsRxT+6MHbp+GhHPI5IxCwAQx1AAAD5fUiQqFdXVO4vq6p2zEhLEu4cPs545V9P6XsXZpqPPLtvumnnt2NA1kwoktYP2Jp5sC0bP/PJ9qfmdKRRun0w4KQQQt3BxA3y1lHBYKqquccx/74OTK8pP1q5ttLv+dduOj4se+cUb5mPlNXFVpIXRjxxgTNxN3OhROwsA9B0UAIBLk9bh9s/cs//Mkn0HP1vV5vT8dPv75UW/fW5bSlNzR1xcT9xolgTbnXtITKukv2ycBIA4FBcDFkB/Y0RpHm9w8scnax8+fPTc8+cvOOYvX7nLtq70oEntbL1BGPGjY0xIOIBZAID4hQIAcHnMbe3eWWUnLjx1ptK+5FjZ+ek/eWStpbKqSdfXFk8wS8Kw739AYmoVYRYAIC7pepAC0ApJimVdqGu7+eSndc+2ODp/9NbWYwVbt5cZ1c51OYT8H5UxIfEwZgEA4hMKAEDvMXt93ROrz7c+/PHJ2ocOHa2a/NiSjbo9SseNZokPnnmQuKmRMAsAEHdQAAB6WVSKZdXUts0/XdHwaG2984bb737R7PXp8z074qiHDhA3lBET9Pl/AAC+EAoAQN+wNLd2Tq1vbH/c19U978mnt1jtOjwlwJNtQSFz1kESku2EWQCAuKK7AQlARyxeb3Bih9u/uPJc8/eXvfxBth43B/Khs48SN1QSsYjaWQCg9+huMALQG68vWGhv7ni04rPGH5S+dTT3s7P6KgHi0Nn1LDHnBPEEn9pZAKD36GogAtCraDSW3eLo/HFllf220reOWPS2J0AY+p0DxMVGUrAMABAvUAAA+kk0Gstubum875PT9Tf97NH1Zo8voHakiybk3HyKmKGKGA+pnQUAegcKAEA/8vqChR0d/kcjEemG5196P0ntPBeLJ9uC3HzlcRIS8EwAgDiBAgDQz7y+YGGLo/O+YDA8aV3pQd08LEjIvXU3KQqeCQAQJ1AAAFTQ0to5qeKzpnurz7fa9HIygA/5Rg2JKVXEBCwDAMSBuHqNKYCOWBqaXHNEUTjf6Q2s9PgCbnNastqZvhQ3muVw+b8el9v23ECxoG6WLwDg8+nimwdAnLK0ODoXRqOxGX989c+6eIsgt157lBTFQVgGANA9FAAAFXV3R/Jq69vu6+oK5VZW2TV/PQqDr6smwVhLxPFQIACd0/yAAxDvmps7p9Y1OOe8sm6f5qfVebItxNOuqCBu0NeDDADgn6AAAKiNkeVCXdstaWlJRVvfPa75fTl88KxyYgKeCgigc5ofbAAGgg53YGxFZdOC2npnJRFp+ubK0saeIjnqJCIb4UsEgG7h4gXQAMbIfKGubUZB/pCxW7ZrexaAW652MGNGLTEB+wAAdAwFAEAjursjeacqGu7Y+u7Hmn44EDeaZWae8CkxEfsAAHQMBQBAO8wX6tqmT5wwYvSe/RWavjb5oGtOETEUAAAd0/RUI8BAEwpF86uqmuc2NroqiUizU+wsvaSSlJiTFCWbGNN0WQGAz4cLF0Bb0k6dabghN8ditjd3qJ3lC/Gk4Q7iBhcxLqmdBQB6BgUAQGN8vu6x0Whs+s4/faLZ65Mn2yIsydZITEABANApLAEAaE/a8fKauaIo7CANLwPwtHHnYoG6ECmS5h9gBAD/TLPfMAAGsrp6Z8nt86ZkVlbZ1Y7yxVIKGomYZgsK9DIuBslowcbPOIICAKBB4YiU7/YEJn5a0aDZa5SnjKwlklEABgJucjNu2MUShpxUOwr0Hs0OLgADXEr5ydqvHzxyVu0cX4gl2WpIllyENwPGuxAZ0vZyy5S3xTH/6VQ7DPQe7AEA0KgTp2qnM2KcNHqDZckjfERyiP6SD18m4pBCFGIJmeU84+qNwrDbqniCWe1I0Itw0QJoVDAYSXvm1wvy1c7xRbjRLLOk4TgJEMeYkOxmBst7PPWKfYJ1GpZ74gwKAIB22arPt05WO8SXYQlDXERckzMUcJmY6GfGjF188PSthisWa/oFVdAzKAAA2mU6X9M6Tu0QXyoxu5UYwwxAvFEoREbLMT545ibBNr9e7TjQN1AAADTM3uLOUzvDl2FJwxxEKABxx2hu4SmjtlDqqMNCejH+fuMUCgCAhp2raS1UO8OXYTwBN4d4w0Q/Y8JOljr6LePI+3HuP46hAABoWDQaMzU1u9LUzvGFkkfUEynYHBY/QiSm7OXD5q8WCx9zqx0G+hYKAIC25bc6PLlqh/gizJTpJkXBJsB4YbTUC5mzNglD/qWSG3HkL96hAABom+jr6tbsDABjAm7+8UJIcrGErK0s4+odgnUalnYGABQAAG3j56pbNL0PAOJChBg/JIy4d5WQM9evdhjoH3gSIIDGybKC6xT6UoSMlmOC7c5VPGOCnSdkqJ0H+glmAAAABjIh2c1SRv2JJVj3CenFWNIZQFAAAKDnkvNrSJFaSKPvK4CvwIQg48adQu5tLxhGLsK6/wCDqUUA6DmeGCHCKQCdipCYclQoeWa5MHhmSO0w0P9QAACg5+RuI2EmUZ/EVIeQdeNGQ87Np9SOAurAhQsAPReoLSBmyCaMJfrCDB6WMGi7MPbX69WOAurBRQsAMLCEiBuPGia98hshwYx1/wEMSwAAGsc5w6N2obdESEw7Leb/6yohvdihdhhQF2YAALRNnjRx5Em1Q0Cc4Ak+njR8n6Fw8Xa1o4D6UAAAtE366y9NUuQIZhF1g/uZMWO3OOnVp9VOAtqAAgCgbbWFo7Nr1A7xRZRgUzYxhhKgfRKJKafEMT9fLqTYfGqHAW1AAQDQMKNRDKanJWl2BoBCbZlEKAAaJ5OQ6BSs0zeJw+cfUzsMaAcKAICGTbwyT9Pr/4oUMBIpaseAL8MEP0vM3SZc+cJKtaOAtqAAAGhYbs6gC2pn+DKKv2YEKYpR7RzwRViIxNRyQ8mzzwsJGdqdSQJVoAAAaFfoyiJbudohvowS6bAQKRhHtEkmIblaHHbbKsE6rVbtMKA9uHABNIpzVjskM71K7RxfRuluyiJFxh4ALWIGH08ds9NQ9NRbakcBbUIBANCoIYPT7b/67ZYWtXN8kZinwkRhVyaRjHFEc1iQJWbvE698dpnaSUC70NwBNGrqlNH7ExIMtH+n2kk+nyJ15RITk0iJogBoi0xiarUw4r4XhfRip9phQLtQAAC0yT9i+ODD1kGpmn3VruKvtRHjmaRgJlFTmOjj6SWvG0YuOqR2FNA2XLgAGpSWmnjqk0/rT359xji1o3whxVdZQEQ4AaAtIZaYu8Nw9ZqX1A4C2ocZAADt8U+9ZvSexERjxJyerHaWL6T4z48gwhFATUkYXC6OW/I0N+Itf/DVUAAANEYUeOPI/CF7c7Mtmp3+JyJS/DV5pMRQALRCSHGIOXOXiUNnV6odBfQBSwAAGpOdban+YPepU/PmTNZsAYi5jqQpIUcuKTF8idCGEE8b9yrPnou3/MFFQwEA0BBFUXyTxo94+xuziiNqZ/kysr+2hLjRTBhDVKcQhcg09DDPv+9lEgyY+oeLhosXQEMGW9PKEhON+26be42mB3LZfXw8EWURxhDVMUNGtTD0O8+T75xDSC9WOw7oCKbvALTDM6EkbyMRuXNzrGpn+VKK51QxKTGT2jkGPGbw8LRxrymBun3GKW9odskItAntHUAjMgenlaekmHb98K6Zmp7+j3krUpTuZhspEjYAqivIkvO28sEz1ovFv9X0Zwa0CQUAQAsU8oy7Irc0OTnBnZszSO00X0ruKBtLipxNpGAGUU0JmWf40Nkvs9RRbiHZpnYa0CEUAAANyM7O2JeWmrj33juuC6md5avI7QenE9b/1SUkOXjq6FXkr6sUh87G1D/0CC5gAJUlJhobi8YOW5tnG+zU+rf/WMTD5c4TV5ESTVE7ywAWZCkjN5BpyFbxyqWaL4ygXSgAAKpS3MOHWd9QFOXoHbdP1/w6rtK2N4+krgJsAFRNkCUN38cHTVsj2u7w/eUkJkDPYA0PQEU52ZajVxYP3/jtb07wpKclqR3nK8nusinEBEz/q8VgbmRpRSuYmFIjWKdh6h8uCy5iAJWkpSZW5+cNWZuSnFBzzaQCzQ/mcsTD5bbd15IcsaidZUDiRjdLzF1Dkv+woXCx5meLQPtQAABUYDAILbZh1tWWjOQDi354vS7WceW2PflKpHM8KZL2pyriT5Alj9zF04s3G0qe86sdBuIDlgAA+p87zzZ425VFtm233nyNLqb+iYhijt0ziQm5hC8O/Y6Zsk+z1NFrWNoVLTzFpvnZItAHXMgA/UhRyD18mHX7lcXD1xZdMaxxbGGuLgZz2d9gkt0ffY3kEHad9TdudJPRspoRLzOMXISpf+g1KAAA/UZx5+ZYjhaOyX6tID/rzLzvTtbNYB5r2T6eYt0lpMT0MV0RP/wsybaOJebsEkuewdQ/9CosAQD0D3dO9qCjebbBKxITE8ruvVP7D/z5ezHHjlmkxGyELw39iiWPOMrTSzYKw+904sgf9DZczAB9TFHInZNtOZpns64abE099OyTC4JqZ7oUUuObo5Wg/WqKhdLUzjKgGDJqmSl7DUuyVQrWaZp+OyToEwoAQF9SFHduTsbRPJt1Vebg9APP/vr7upvGjbV+MIPkcBGRgpf/9B8/Mw1Zy1JGHhBGPqCrwgj6gQIA0HfctmHWzeMKc5dmDk4/8MyTC/R38/dUmGXPia9RLIiH//QfP0sZtZ2lF28T8n7gwtQ/9BXsAQDoAwaD4BialbH+qvEjXp981cjqeXP0s+Hv78UaXp9OcmQiNv/1o4QhtZQwpJSlF1cL6cW6OCUC+oQCANC73JaMlJohg9NKC0ZmbZv7natbrplUoMv1WznQmBT+8FvfJMmfT/j23z+40cW4cQUzpB424sgf9DEUAIDe48nNtuwbOWLI2uTkhKM/e+BGX26uVbff4KTzv5tJijSVlBje/Nc//Cx5xJs84+rd4thf+ojWqZ0H4hwKAMDl82SYk6uHZKZvGppl3jGuMLfxwftvDC17Ru1YPfeXb//f/CZJXQWEb//9giUNP8mSR25hmbMase4P/QEFAKDnfIkmY+Nwm/VQfl7m25IUO/Xow3N8uTmDdPut/2+k88tmkqJMJ0VKIWJqx4l/YoqdBNNaljyizJD9bV0uGYH+oAAAXCqFfKJBaMnNtpzOz8ssDYWjx679WqFn3ncnR5Y/p3a4yye5jmRHT/74uxT1FhAxfPvve34yWl7lmbN2iaN+GiR6Qu08MECgAABcPH9CgqE+z2Y9OnLEkE31je2VYwtzPA/ef2No7Qq1o/WeWPWL11OsewZRDN/++5hCip+njN7FM65+j+fMw9P+oF+hAAB8Nb85PenU1VeNfDc1JXFfQ2N7/bVTC/3LnvlB5J0NakfrXVLjm2Oj55Z+k6LeXHz773vMMMhBPOFtlph9WjSX6H7pCPQFBQDgn4WIyJ6SbHJfNWHEgczBafs/rWg8mZ2V4f+XmUWRayYVSBteVTti75MjHjFy4Lo5FHFfryhKCsOX/77FjS5mSFslZH1rt6HwP3DkD/odCgAAUYSIGo0GMTRqZNaZMaOzT2SYk469/c7xygxzcuSq8fmhxQ99R0pPi+9n4cSqn59OxL5NcsSKm3+f87OkvO1CztwdQu6tHqL/UDsPDEAoADCQVBMRcc7kkSOGVKWlJnoKR2d/mphodCcnm86sfGVPTUKCKFsHpUolRTbpP382R/r4oNqR+0fMdSQ7cvIn36OQYzzh2F+fY6bsKpZk28ISh1bzZJvacWCAQgGAzzX1mtErr5k0clNSUkK8TE3KnDPPU8++YyciMhgEOSFBlC0ZKXJ6epI8umCofPrY/8injxFtXKt21P4nnVlyI8UCNxIpeOhPXxNTWkgwreaDZ+4VbQuw7g+qQQGAz5VpTWsgovIxo7Lj5k1kqckmOnfyBZmI6Gz5X/7dALzX/5PomV/OjDn+dAtFvVlqZxkA/MxoeUu84hc7uPXaCNFCtfPAAIYCAJ+PEUUjknzNpAJ8Q4lTcsRDsvd0dvTUw3Op2z6DiOJ7k4P6/Cx5xAGeOesdZrS04MgfqA1rfQADlOwuE6XT/3kzRTpvJSJM/fc1Q4aTCcmbjMW/PSRYp6mdBgAFAGAgil5YxWMNr8+mWGghxQLZaueJe9zoYgnW18Txv9uhdhSAv0EBABhgpPbDXIl4xiv+CwuUUGuB2nniH/OzxJzdwvC7tgvmYo/aaXpq+cpd4vKVu7BsHEdQAAAGkJi3gitdVbly8+a7lMCFmwhT/31NpoTB1Ty1cJNh5KJTaofpqeUrd4mRiDQ5HI6OVzsL9B4UAIABQo54SHZ/bI01rP+BEnLcSbj59z1udDJiG/U89X+8vIa7O/2Tauud3/30TCNOisQRFACAASAW7iSp4ucpsfo3blJCzntJjljVzhT/uI9MWTvEkme2cqNZl6dpvL4AfVrRkH3wyNm5pz9rnKR2HuhdWM8BGABidX9Mkv21Nyuh1scp2pmvdp74xyRmGnJKyLqxVBw6u1btND31wvKdSUfLzt/Y2Rm4LSkpQbf7F+DzYQYAIM5FPvmpSfGemUHRzkUUdePm3/dkEpPrmSmnVBj174fVDtNTW989Ltqb3TND3ZGFwe5Intp5oPehAADEscgnPzUpEfdMpav6YSXYgA1cfU8mJnhISN4pXvnMZp6QIakdqCeaml286nzraHur+zvOdh9OisQpLAEAxKnIJw+alHDHTCVw4WElWD+VsOmvH/AgJWQdEm0LNgrpxW610/TUqlf3mY+VVd/ocHrnECOL2nmgb2AGACAORT75qUkJd8xQAhceVvx1uPn3D5kMqY08ZeTbhsLFx9QO01PLV+4yfXbWPsvXFbo3Go3hIVFxDAUAIM5EPvlpkhJ2zVACtY8ogbqpxHDz7wcycaODGQdtFkue36Z2mJ46Xn5ebGhylQQCoVu8XjwhMt6hAADECTnsofDhuWly1/nrlUDdX27++ObfP5jgp4TBe8Wxv3xNSLHp8g2aXl+Q3t91Kqvis6a5DU2uG4gxTP3HOewBAIgDcqCRS2f/26xEO2cr4fafU8RlI9z8+wmTyJBeJVhnbNTzkb+nntma9lmV/QZnu3c+Edb9BwLMAADonOSp4FLNS5lyZ9l8JexcQhHXWMLNv7/IxI0tLDF7kzjuV7vVDtNTe/afNnq8gUn+QOheHPkbODADAJ/L7fYPUhQFBVHjohdWGWP1rxUorkPzlJDjQZLDmWpnGkBkYoKbJWTuMoz79Qa9Pu3P3tzBf7/qT7amFvd3ne2+sWrngf6DAR4+19nqlskeb7DosSUbURI1KBbupMjZp02yu2yK0lm+WA42PIqbf3/jETIOKufDbl8jWKc51E7TUy+t3GWuqGy6qbnFfSth6n9AQQGAz9Xu8hW2tHY+ZE5PKlhXehCfEw2JeSt4rO4Vq+zYNU/xVS5Rus7eyjDl399kEkyNPNG2yVi4uEztMD21fOUHSW1O79ROT+AOHPkbeDCwwxfJPH/BMavsxIVFjLHs3fsr1M4DRBStWirG6t8okZs3/0jpbn5aCdTOItz8+5VCikzM4GRJw7cZJq54S+08PVVZZec1tW0FzS2dd3W4/XhE9ACEAgBfJvOzs/bv/2nvp3cqMdlcWWVXO8+AJQcaSWp8KyXmOnyD7D7+qBKof5ykLpvauQYiRmKImYYc5cMWlHIdH/lbvupPmZXnWm5pau64njD1PyBhfRe+SmZFZdOi19/80Pm9uVPWEZEuNzrpWbRqKZfq1pbEmrfMJMbvVUKt+ZjyV41MQkI9N49fYyxYdFrtMD313Is7UlyurhvaXb57CDf/AQszAPCVIhEp72x1y6PrN344W+0sA43kPJgZs2+6VW4/sJjCbU9RqLUEN3/VyMQEB0sa9rpY8vwutcP01O59p42BYLjI6fLe3d0dwSzSAIYCABfF7w+NdrR5HnnsiY1T1M4yEMiBRlOk7J5Z0pnHH1QinqVKV+Ucwo1fRYpMTPCwpOF7DcW/fZUn6PfI3979FVmfVdnvcLR5JqqdB9SFJQC4aK6OrrGfnml4aF3pQfc9d1xXrXaeeBQLe7hct7ok/OHsWUww3aJ0NxURUZrauYDLZLScFoZcv0KwTneqnaannnlhe1qro3Nec7P7ViJmVjsPqAszAHDRFKLM2nrnzC3vHn9gz/4KHBnqRXLEw6NVS8dHD878Uax52xKKuH6pdDdNJdz8tUAmxp08reh1Q9FTun3L37rSg0ZR5JOaWzsXRKVYltIW51wAACAASURBVNp5QH2YAYCLxoiISMk6f8Fx2x9f/XN7ZZX992MLc30qx9I1OdzJY3VriiIHZ00hbvyWEvVMplBrFqGcawh3s5SCreLYxzcTval2mB6prLLzDW8dyfu0ovG+Tk9gtNp5QBtQAOASMVIUyjp3vuXeXz29xeX1BV9JT0vS5XqommL+RlOs5neTIoeuLyEmfEOJuCdTrBs3fs1hEiVmnxJsd7wspBfrsux6fUH69TNb0mrrnbe1ODpvJCJM/QMRoQBAz/BwRMqvqXU8+MN/W+Umos1qB9KLaOvObLlhw6TIkdklxMTrKOopolh3JuHGr008wc5TCpYZRi6qUjtKT618ZY8pFI7e0Njkuo9w84e/g0EHeooHg+HRLa2d9z66ZOMMtcNomRxoNEUrn5oUOjDrh9KZJ34ue0/9kiKdj1CodRa+9WsZc3PzlavFq1bq9sjfnv0VIuN87Okzjff6A+E8tfOAtmAGAHpMUUj0eAMTy09eWLjujQPue+6ceUbtTFoRCzSaZOd+m9y6Y2L4w2+NIyZMolh3IUl+C1EshYjhpq9tMksds08Yef86wZihyyUury9IDz/2eoq9uWORs903Ve08oD0oAHA5uCwrmS2tnbNK3z7q3rO/4vlvfL24Ue1QapG8FSmK53Su3LJjfOTwt4uJlLEkxwpJ8mUpipTG/vebPlM3KHw1g7mGWyY/Lw6d3aJ2lJ766eJ1pkAw/IPmFvc8wmkS+BwoAHC5uCwrWc0t7puXr9z1t5MBHrVD9Qc54uGy+2Or7C4rlDuOjI0eWzCKFCogRSogyZ9NSjSF/nqN4ZavKx5uvvI34hWPlxEtVTtLj6x744DocHqnbNletkCKyVa184A2oQBAb+CxmJzd0Oi66xdPbnJ5fcE/xuPJgJi3wqQEm7Nlzyd5iufT/Mj+a0cosWA+cVMeyZFsigXMpMSSCNeVnvmY+arN4thfbuVGfT7tr7LKTidP1WW998HJh3ze7rFon/BFMFBBbxHDkWh+Y5Nr0T33r/SQXg9M/51YoFGUW9+3Kd4zU+XOE/mRQ98aTmKyhZiYS4pkoVjQQnIkhciP6yhOsKS803zQ1OeF9GK/2ll6wusL0vqNHxo/PFq10NXRdT0xPD4avhgGLug1ikJisDsy2uH0LHjsiY3OZ369YJ/amS4HI5Jl15FMpbvpbiXUOp6UaApFPSLhuolP3NTC0oufVsJtun3M9R9W7+GhcGRO9fnWHxHeHQFfATuRoVcpimLyeoKTj5+ouWtt6YEStfNcDp5skynqqyYl9i4JJj8RmQg3/7ikkOLhg6a+Igz5xgHDmMW6nPonIrrm6oK8P+09vag7FMGjuuEroQBAb+MxWc5sc3pveH3jh/fu2V+h69eNitesd/NBX9vKTFlvEDe61c4DfYOnXnGUmUvWEilBnqzPj6zHF+BPPbPl525PAG/shIuCAgB9gcdicpbT6bt52e/fv7Oyyq7bp48JRjMJw+9ycvOVa8loWUdEQbUzQS8zZNSwxJzfUHdro2ibr3aaHvuvJzf9qK3ddyvD1D9cJBQA6Cs8KsVyW1o771r8yw23ebxB3X7WBHOJJOQvrOfWGaUsKW8boQTEEw+3XL2UpRefFIt+rdup/3WlB2cc+7jmjlhM1m3Zhv6n20EZdEEMhaMFDkfnA/c+sEK/X62ISEgvlgXrtDPMXPIaS7IdJpSAeODhGVdvZ6ljdgiDZ4S4UZ/3zsoqe+b6DYce6PKHJqqdBfQFBQD6lKKQGAhG8ttdXbc8tmTD9WrnuRyibX6Em7IOs5TRK8iUjcce6xwz5dSQIfV5JocdgnWa2nF67FdPb3nQ4fTeSJj6h0uEAgB9TlGUlA5319SyE7W3rys9qOuTAYaip4Isdcw+Zhy0lgzpA/axx7onJNpZetFSlnpFtaHoKd1O/f/2uW23VZ9vvT4Wk/GoX7hkKADQH7gsy5mtjs7Z6zceulv3JwMKfupjiTlvMkP6chKSHGrngUuleLjla2+w9KIDQu7ckNppeup4eU3+lnfL7u0ORUoIYzn0AD400E8Yl2NKVnu7b94Ly9//fmVVkz4XXImIJ5jJMOFFD8+e8yYzDVlPzDAg3n0QL1jquKNkSF3LDOkuIb1Y7Tg94vEG+b///PXHA8HQdCJKUjsP6BMKAPQfRjwSjdkcbZ67//3npfO8Pv2eDOBGM/Gcm1t4zrzXyZS1nbApUB+ERDsx9ixLGFJrGLlIt1P/jz/55v1eX/AmRcG6P/Scbgdg0C0e7I4UuNxdD929aMWtaoe5HGJ6sczTi6qEnJuXs8RhOwglQNsUxcMHTV3Gh950WhzziKR2nJ7auv34lI/Kzs+NRmO6nUUDbUABADWIfn93rtcb/N5jSzbOVDvM5RCHzpZ4SsEpZh6/kUxDTxJKgGbxQdfsYEnDtvLUQp9ej/zZmzvSXli+84Fgd2QKERnVzgP6hgIAqlAUMre2dc745NP629eWHixSO8/lEG3zJRITd7LE3NfIYMGmQA1ippxTxBOW8/TxdjF7tm6n/h9cvG6xxxu8SVEUTP3DZUMBALVwRaHMhqb2eRvfOnLXnv0VuWoHuhwJE5ZH+ODr3mCJOctJTLWrnQf+Dw8l5SwVht91hg/9lm6n/pev3DWnodE1IyrFcPOHXoECAKpSFMpsdXjm/+7lnbfp+Z0BRERi/sKQOPqRV5mY8iZOBmiGhw2+biXP/JcDLCU/qNep/+Pl5/PXvH5gYSAYnkSkYOofegUKAKguEpVsrQ7PAz97bP1sPb8zgBvNxNPH+cTxv1vKEoeuJyb61M400LHkkZVMjm5iQmKLXo/8eX1B/osn33owGpFmEFESEVM7EsQJ3Q62EF8CwXCB1xt8/O5Ff7j5sSUbdfu55Mk2EjNnOoXRj6ylhMF7CZsC1SMkNTJD+tOG8S9WGkYuUjtNj2x59zh/7IkNP3F1+OZLeNof9DLdDrQQfzyeYGZ3d+QOSYpNX1d6QNefTYNt/inRdsfLZBqKFwepgrlZxqQXhVEPHuXJtojaaXrCbndRIBieUnay9luhUFSfaxegaboeZCHOMLI2NLXPqKpuWeDrChXu2V+h68+noXDxPmHwjNVktJ4iIt0+claHZJZetI8nDt0pDp3tVjtMTx0/ccG64pU99wWD4elEZFI7D8QfXQ+wEI+Y9fwFx61/2vvpHc2t7tzKKn1vqDdOeGkzN2VtISHFSUS6PX6mIzIZLZWkxFaI435drXaYnlq+cpdxXemhfwsEwnNkGUf+oG+gAIAWWRubOu7c+m7ZzcfLayxen75n0A1Tt7zEU0a9TEJyC6EE9B2FZGKCkyWPWGEo+u+T3GjW5X/ryio773B3zXY4PdeFwxKe8w99RlQ7AMDniUQlW3NL54Olbx1xHi+/sI10PIXOjWYp5q14NVp273AlFJ5PsmTBRu4+wLiHpY/fLAz++i7BOk2XxzC9viBteOtI3rb3Tyzo7o5MIYYX/UDfwQwAaJY/ECoIBEKPOto8sx59YqOuzz4L6cUuw4QXnyVD+m5izEekqB0pzjCJJWRWMTm6yVC4uFbtND21et2+tLfeOfaAJMWuJ7zlD/oYCgBomrszkBsKRe7t7g5PWld6UNczVoJ1WqNh7BNLKcF6iIj7UQJ6jUxicj0lWF80XL2mTO0wPbVnf4Wx5oJjXldX983RaMyidh6IfygAoHXWuob2GfWN7Xc02l2jd+8/resSINrmnxSz564m46ByIq7bZQ1NYaKLpYzaIOYvPKzbI3/NHfzjExfGn/y0/rtdXaFstfPAwIACAHqQea669dYTn9QtOF3RmP3ZWbuuP7eG4qe2C5bJr5GY2kjEdLlRTTuYxBKzy7hp6HuibX6L2ml66o1Nh7Pf/9Mnd/sDoZlY94f+ouuBFAYQRpm19c4fHP7o3Jy33zlm1vvJAHH8sjd4Ut4a4kYH4WRAT8kkJFUT0Vpx/LKTaofpqeUrd6V8fPLCrd3dkZtiMRkP/IF+o+vpVBhYIhHJ1mTveDAYDDvP1zp2kI6fsMeNZkmOeF6IHJgxVAm77yQlaiEU8kshEze2sOS8tYaip/bp+MifuOKVPbOaWzq/HQiGse4P/QoDDuiKPxAa3eUPLY5EpOmPPbFR109H40azZLim9DcsMWcrEceLgy4FEz0sKW+XMGjaTj0f+VtXerDgo49rvtfpCUwhIjzwB/oVCgDojrvTb+vq6l4UjkRL1r1xUPfHA8VxS5ZRgnUfEfOrnUcnJDKkVzFD+iZD8VOVaofpqVfXH7CUf1J3RzgcvZFw8wcVoACAHmXWNTinX6hru7vB7srfs69C10tZ4tDZVWLBT56nBGsZSsBXkognNDKjZaNQ8vQxtcP01J79FUmV55pvCARCN0UiklXtPDAwoQCATrHMc+dbbz11un7ByU/rsiqrdH4yYOSio0LmrBVkMFcSkaR2Hs1iBg9LztvOh9+1Q0wv1mVZ8noD9O775UVnKptu8XgDBWrngYFL19+cYMDLrKltu4cx1t7W7n3D6wt40tOS1c7UY8YJL20OH7nFKns/zSSpy0Yo6P+ARciQfpIZB28xjlxUr3KYHnvk8TdyPztrv93r676eiGHqH1SDAQZ0LRKRbA2NrgfPVjXfsPDBV3R/flq8+pVXeGrhCuJG3b7Gto9IJCRVM6PlNcPVa46qHaan1pUeTOvsDMyJRKQ5OPIHakMBAN3zB0KjPd7gw0mJxqmPLdmg702BxgxJnPCHPzBT1noi8uNhwX/FTU6WnPe2eMVje3V85M94+GjV1BZH53f8gXCW2nkAUAAgLrg7/QUtjs4HjAaxaF3pAV0vbQkpNr949ZqnyZS9k+n4WQe9hgkhlmA9LAyesVUc+m2n2nF6wuML0OrX9uWfrW75nrszMJ2w6x80AAUA4oW1odE148Sp+oUeb3fenv0Vuv5si+klLnHMo7+hxNwDpCgDuQRIJJhOU4K1VBj1M90e+Vv96r7M8zWOeYFAGEf+QDN0PUgC/ANrzQXHrYcOn727ye6yVlbZ1c5zWQzD558Wcm9bSonZ5WpnUYlEPLGRJQ57W7zyOd0+7e+vR/5mtLt8c7tDEbzoBzQDBQDiCyPr+Qut9+zcfWr+G5sOm/T+zgAKtx3g1unLSUxvVDtKv+NGH0vM3i0MvWm7bo/8+YK0fsOhsdU1rbd7vMFCtfMA/D0UAIg7kWgst7bO+dBnZ+3z7vvxKl3vBxCveIJ4xtXbWdKwpSQkOdTO039YhMSUUyylYJOhcHG12ml66mePvmarb2y/vdMTuJ4w9Q8agwIAcSkQDOe3Ob0/zs22zHxsyUbdfs55gpmEnO9G+ODrXmEpI/9IzDAQjgdKJCTV8OSRGw1FT+n5yJ85GIzcEAiG8ZY/0CTdDowAX6XTEyisqGz68XCbtWRd6UG14/QYN5pJyJ0bEmzfX8GSR6xX4v1kAE/wsKTc3cLwO3fy5OERteP0ROVZu/F4ec34Fkfn3EAgnKt2HoDPgwIA8cxib3bP2PZe+YNZQ8w2tcNcDiG9mHjqGKeQe+vLPClvK8VrCWBCiAxpZTxlTKlom9+idpyeeuH3O/PO1zhu73D7pxKm/kGjUAAg3lnqG9tvXrlm76LKKruup2EF6zSZmYbU86xvLmeJw45R/JUAiXhCFU8bu0a88n9Oqh2mp37z3DuZHm/gRldH1yxM/YOWoQDAQGCpqXXc88Rv3r7H4wvq+jMv2uZLFPWcYmmFLzJT9im18/QiibipkaUWvi2OemgfN2bo8sjf8fIaU82FtklNzR3f6w5FMPUPmqbrwRDgYkWjsewLtW0P/vCBlXeqneVyGSe8FGFC8m6WPOJlMmTUqp2nVzAxxBIyjwqZs94UrNM8asfpCa8vSE8//25BVXXL3R5vcCIR6f7dFBDfUABgwAh2R/KaW9z3PvbExhvVznK5xJJnQ2TI2MGMlqXEjS6181weFiEx5TRLL3rdULhYt4Xmv369KTsUiizwegM3EG7+oAMoADCQcK83WPLRx+cXris9OF7tMJeDG81kGP+cjyXZNrPEYX/QcQmQSDDVc/OETcKYfz+sdpieWld6MC3YHbm+3eW7KSYrWPcHXUABgAFFIbK0OT0zXttw6Me791Xkq53ncnBjBglXPO7mmV9/naWM2kpE+ntaHjMGWXL+Xj7465vF9GJdbmqsrLIbT5yqKzp3vnVBVyBcoHYegIuFAgADjqKQxdHmuel3L+9c+FlVk0XtPJdDNBfLPK24kZsnrmYpBdtJVyWASSQknOKpY1YYChbp9sjfb5/bll19vvXeDnfXVIapf9ARFAAYiLgsK5lNzR3f//mSN3/o8QZ0fR2Iw+dHWMqo0yxt7GqWlHdM0UcJkIkbavmgqavF4qd1+5a/5Ss/MBuN4g2tbZ7psqykqZ0H4FLoeuADuAw8EpFyG+0dC+99YNU9aoe5XIaCRREmJJaR0bKCGSzafw0iM/h4xqTNgm3+Dr2+5e94eY3x/IW2iafPNN4dDkfz1M4DcKlQAGAg46FQxNbc6r79sSUbb1I7zOUyTngpyLhxL0vIXEoGi3Z30zMhxBKzD/NBU1aLQ2fr9MhfgH73hw9yKz5rWtjlD00kIpPamQAuFQoADGiKohi7fN0Tjxw7d9e60oMT1c5zuQyT1/m4deoOlpSzWosnAxQimYjVc+u1S4X8Rbp9xfHjT26yRiPSfU6Xdzbh5g86hQIAAxzjsqJYXB1dM9es3//Anv1xcDJg+Pdd3Dx+A0sYspK0tR9AZky088zrVwkj7inT69T/1u1lSYmJCTNqah03SZKMdX/QLRQAgL9sCrR2uP2zl/7uvYWVVXZdnwwQ0otlnne3nQ+esZGljHqLNFMCBImljD7MrVPXC+nFIbXT9IS9uYMfPFxpO3Ls3KLuUHS02nkALgcKAMBf8FhMznK0eeY/8njpPV69nwxIL5a5ZXINTy96jSWPPEDqlwCZxKRKbp32rGHkIrfKWXrsZ4+ut5yrcSx2dwamE6b+Qed0PcgB9DIejki5DkfnwrvvX/lDtcNcLtE2P8ISBpexlJEvsySbmi8OkokJdiH3lqfF/H/V7ZG/l1buShpus95sb+6YqigKzvuD7qEAAPxfYncoktvm9Mx99An9nwwwFD0VYqmjD5HBslq9kwFc4tZrt/HB1+3gyTZJnQyX59jH58VAIDR+7/4zi6LRmK73iQD8DQoAwD+QZSWp0xOc8tHx6gXrSg9OUjvP5RILfhJkibnbmCFtKYkp/f2MAJlMmeXMfOXT4tDZunzUr8cboJVr9pp376tYHApHS4jIqHYmgN6AAgDwDxhjXFEUs9Plu2HN+v0L4+FkgGH88z6eO3cbM2X38/FA5hCH3/VLceS/Ofrvz+xdjz+5KUmWlcWONs+NhJs/xBEUAIDPxxVFsbg7Azf9z7Lt9+r9ZAA3mkkY+m0nz5n7JksctrmfHhfsFIYtWM4Hfe0wN+rzBXl79leIV4zJmXLiVN1sWVaw6Q/iCgoAwBfjkhTLcrp8d/7ssdfv9HqDur5ehPRimaeNqeHZc1bw5PytpCh9WgJYyujTZMp+SbBOi/Tln9NX7M0dVHPBkfX6mx/+UpJihWrnAehtotoBADSOh0JRm6vD9+O771/hJ6JX1Q50OcSh35ajDW+eYenFG0mRcpVg4xTqizfYiak1wrAFiwyj/k2X6/5ERL948k1jJBJb4vEGpxPGSohDuv5GA9BPeCAQzuxwd819bMnG2WqHuVyG4fNlJpj2kilrDRkH98XjeJ1i/v1PcsvV9X3ws/vF8pW7+NjC3Hs+PdOAmz/ELRQAgItjdrb7ph4vr7k9Ht4ZYJzwkiRkzd7ME4cuI4O5vjd/Nrdet0uJejcr/gu6fNRvZZWdrhiTk/9a6aGHZFnB0/4gbqEAAFwshSwtrZ03rSs9eN+efafz1I5zuQTb/Ig49lcbmJiylpihd57OJ6bWsATrI3zwtSFx+Pxe+ZEqEH/z3LblsqyMJYyREMfw4Qa4WIyISLG0u7rmLX1xxw+Ol9dYvF7dLnETN2YQSxrmFyet/j1Lsq0kbryMEqAQETnE0Y/cx23z3Txjcm/F7Fd79lfQ2jcOLmlp7bzxL3/fAPELBQDgkjD668mA+x5/ctP8V984oOtz4TzZRmLGRLc46qelzJS1k3p8PJA7hdzbXqFQc5k4eIbME/R37K/J7iKvLzhj+84T89TOAtAfUAAAeqC7O2Lz+IIP7T9UedujT2zQ/SYx0Ta/Usi9bRVLHLaPiF1qCZBZyqhTiu/s84ai/9blW/6IiM5UNmU98/y7vyGisWpnAegPKAAAPeTr6rZ2+btvD0ek69eVHtR9CTAULj7MrV9bTaYhZUR0UWsbCpFMhvRKPnT2z4XxL/j6OGKfWVd60Lhuw6En/YHQFLWzAPQXFACAHmJElpbWzqmfnW263enylezZX6H768k4YfkObrS+TWJaCxH7yl38jIktQu73nuXJIypFc4led/1zR5vnttNnGqcqiqL7v0OAi4UPO8DlsTQ2dczZ/efTd9dccORXVtl1f02JX9vyCk8peJHElEYi+pKbuhDh1ms3k9S1Q7TN1+XUv9cXpLITFwpf23Do4b/s+me6//sDuFj4sANcPoujzXPru++X37b3wBmrxxdQO89lERLMknjl/2xgxkFvETO4lM/9XzGJJY/YS9y0TBz3a08/R+w1m7Z8ZN605aPHFYWKCOMhDDC6X7cE0IJoNJbd5vQu3Laj3PVpRcMG6p+X7fQZIb3YHXMdWR45cb+FhV23Eslp9P9vkDIZzKf5oGt+w/PuadHxi35MOz44+aOGJtccRVF0fZoDoCfQeAF6SbA7kuf3hx5sd3XNfmzJRt2/OU6wTrOLhY8vJ1PWbiLup78tB/AEOx9y/XKeMfm0aC6R1E3ZM15fgMrKa2buPXBmQSwm6/7vCqAnUAAAepHXF8wOBEJ3+bq6p68rPaj7b5WG4fNPC0NvWkMJg48R8RAxMcgzJm5mTNgpDp+v21mOX/xqU+7W7WUPx2KxIsJMKAxQKAAAvcvS1OKeeqGubUFNraNoz/4K3d9cjMVP7RYyrlpLRnM1S8rbRTxphTjuSafauXpqbemBtOZW9+JQKDpVUUj3JQ2gp3Q/OAFoDSOy1NW338yIPIkmo6/ybFPt2CuG6fKI3N+I45dtVj7+YRLLmHCaZ3+3Ua/r/p9V2Y1/fPXP8y7UOWdImPqHAQ4FAKAPMEYWe4t7/pFj1e3+QGid1xt0pKcnqR2rx7jRLBHRq0RbieiXasfpEY8vSC/+4YOSPx88c180iql/AFwAAH0kGo1lt7Z5FoYjUdf9D695i4h0+6S8eLB2/YHsw0erHpRlZTxh7APAHgCAvhQMhvP9/tCPI+Ho9Y8+sUG/UwA6d7z8fNKnZxrmtzm9N8ZicoraeQC0AAUAoI95vEGbxxe8NxAIT15XehDrzv3M6wvSujcOTT95qu6WUETS5+YFgD6AaTCAvmexN7uniqLgTE1N9OzZX3HmG18v1uX5eT168unNBR+fvPBAJBqbyAi7/gH+BjMAAP3DUt/gvPnTioa7jhw7Z6s8q/93BujButIDmfUNrrvDEWmqoiiYfQH4O5gBAOg3zNJod83nnLW7Orpe8foCrvS0ZLVDxa3Ks3bTSyt33VjX4Lwxgql/gH+CAgDQj6LRWHZzq3tRJCq5fvST1TgZ0IdWrf3zxE9O19/eHYqOJUz9A/wTTEMC9LNgMJLn9QYXGY3irEef2IiTAX3gt8+9Y/usyn57IBCerCgK/hsDfA4UAAAVeDzB/NbWzvtkWZ4YD+8M0JLj5TUppyoa57k6umZGo1Ka2nkAtAoFAEANjCzNrZ1TT1U0LLQ3uwvj4Z0BWuD1Bfmy3++cUX2+dW53d2Q0MYZyBfAFUAAA1GNpbHLd9FFZ9d2nKxqyP6vCyYDL9cR/v1VYW++8OxyOTiIi7PoH+BIYcADUZWlodH3/4JGzd/5h9Z4Ujy+odh7d2vpuWWZ9g2teKBydKmPdH+AroQAAqCwqxbIa7R2L6huc8+/7t1X41toDTc0dxq3vlc20t3R8KxyOWNXOA6AHKAAAGtDdHbE5Xb77BltTb3xsyUasW1+ip5/bVnKhznl7MBgZT8RQogAuAgoAgEb4vN2jz55rWZhhTp64rvQgrs2LtHX78cyGJtdsfyA0BVP/ABcPgwyAVjAyO9o8U3ft/fRBIhq9Z38Frs+v4PUGeemmI9Mdbd5vRSKSRe08AHqCAQZAW8wtLe7Zb2396AFJilkrq+xq59G0/3pq09jWNs/3gsFwCWHXP8AlQQEA0BrGzA1Nrvkr1+y9/0xlE54P8AX27D9taWhy3egPhLHrH6AHUAAANEiS5Mz6hvZFGzcf/Ve1s2iR1xfgr75+cLKjzfudcDiapXYeAD1CAQDQqFA4mt1k77jr0SUbb1Y7i9aseGVvgbPde4s/EJpIeNEPQI+gAABoWJc/NPbw0aqF60oPTlY7i1YcL69JO/ZxzSxXR9fMWExOUTsPgF6hAABoW5qro2vqmvX7H969//RotcNowTMvvDuppbXz9u7uqE3tLAB6hg1GcSh7qMVVPM72/pDM9Fq1s0DvSDAaPN3BSDYRVaudRU3LV+7K27nn1Df8gVAhY5j6B7gcKABxKDdnUMvE8Xlv+nxBHIuKG4ykWGzAvyggN8cSumr8iA8zzMl1sZiCAtCPLOZkV052RqXaOaD3MLUDAABcrMoquxgKR43RaAzLl/3MIApygkmMjCscJqmdBQAAAAAAAAAAAAAAAAAAAAAAAAAAAAAAAAAAAAAAAAAAAAAAAAAAAAAAAAAAAAAAAAAAAAAAAAAAAAAAAAAAAAAAAAAAAAAAAAAAAAAAAAAAAAAAAAAAAAAAAAAAAAAAAAAAAOIQ6+0fWFllF19df8DS5vSae/tnDxSigcs52ZbIbliIbwAAIABJREFUsJxBofEleb5rJhWE1M4EAADxReztHxiNxlLcHv88l7trbm//7IGCcyZ1h6LO5ma3/cDhs59MmvGL+lnXjXNPuXqUe96cyT6186nN6w3SvkNn0i7UOdPOnmtOqqpuSXF3+o2yrKgdTZeyhqSHbLnWxtdX/9itdhYA6D+9XgC6wxGxodE1xt7ivqG3f/bAo0SImNNkMvhq65zHnO2+g7fetaz8+9+bZu+rImC3u8R3d57IlGWFX+rv5ZxJ3/32JFduziCpL7Jt3V6Wdvzj89bZtz6baRtmncQZu8LjDdjC4ahNURQzEV1yZiBSFKpRFHqaiHarneVv7M0d3OMNGgPBsOjzBcXm1k5TV1d3r49XejRmVLZrbGFOKDdnkNpRKFq11EJEKZf9gxRqNFyx+PID6ZDU+KZJiXZZKOq5vM93Yq5bsE4N8uTh8sX+FlxQmsaMRJQbCkWporIxXxTFmZmD085s3V625ZY7l5X950M31V9z9aheXR7wdoUsx8svPBCLxSyX+ntFUWibee24lUTk7M1Me/ZXpKxcs9f2znsfTw4Ewtf5A6HJJ0/V5RORqTf/nIFKURSHmn9+ZZWdt7R2ppyqaDBXnrWn1TW0J825/bm0nGyLNSnRaBUEbuKcDVYU5fJvNHFANAircrItlUTUJ0X7UihSYLISrP8GRb1pPf4hTAjxod9+mohaei+ZPsiBRh6tfLKQor4FpEiXPOb+LzHVz6TAa2SddoaIUADiDzNJUiy/pbUzq93lKxpkSS1btXbf6799blv5L/7j5l674foD3eYTp+p+IEkx26X+XqNBqPEHQhuolwqAvblDfPKZLbbXN3442dXRdburo6tEkmLZhBu/7u3ZXyE6273WA4cqMxc99ErWkMz0PM7YBF9Xd36gO5wZCIat1TWtSUTU80ExTuXmDPrThCvzqtTOQUREUY9Pdn9cQpGOmURKz+4niuIhIbFNjnh+y43mi755xQPp3HNWxXN6jtzd+BNGlNTDHxMhU/ZeFmqO8KJfXVIpRAHQn6RoNJbvaPNkBbvDNr+/e9O8O17YvvYP99enp/f086M9W7eXpf3XU28VtTg673C2+2Z1d0ds1PMLBDTA4w3QB3tOGc9Vt+Y9v/z9PHN60qROT+Bajzc4uq3dl8aIrGpnhEsjjvvVMbnzxAdKLFhAsaCNerIMx5j5/7V37/FRVGfjwJ8zM7vZ7G52N5vNfVlCCDEGEhFjoFwUKCAKggXLRat4w0ut9cqrra3+vNZba6m1Qr2gIkK9oAahCAiIgBADRkjCEkJINpv7ZrO72evszJzfH9L3bWstyewm2U2e7+eTf9Q5c4TJzHPOec5zJMeXd4iN73wAALER2AwAoXWbUqh/dRIV/Usj+PgDsBo7o81bx+Xf0wDweZ8uxQAgfqk9nsD4k3WtphRj0sh7Hnp7rb25q76/1t8H0tMvfJy29bNvZp463Xads9s7VZKo/OlFNOhcbh/s/bKGe+mV7Xm791WPS0pK/EmnwzP+TEOHCQDSAPphOxIaEIzSIIWtz+8QbBsuBjFoApDkLdOIgSyxbfvdks92N6Ox8FHuZkwSmzebIeS4EnhHTgTN8CTRvIMoU8pZ0xR/Xy/GACC+qYPBcH5XV881kiSpfn7fG2tdHv8xgy5+B8oPPbIxq/qE/ara063XejyB8YCj/ri27p0vmPWbvsx9/6PD4/U69WKH0zu5pc3V5+UlFLsUBauqgvsu20rD7nFU9BcSmcm4tPvrJeETT38CANuj3MWYE7Y+rxXbd06mAfsciOQdp9BbgU18nzv/1y0Aa/p8OWZNDwHBUDijo9NzTXuH+7Y77n4tz+3pcyAYEx56ZGPWmcaOq2vrWlfgxz/+Ha+2qT7fe3z6nn01d3a7fM/X1rUu43kBP/5DkKLwke1EmbKPEIU3gmYM1HX0ftFxYEjnfUh8N0jdR3JA8C4F0S9/2YuwfqIe+SGbcVkVo7HImvnFAGCIEEXJEAyFF3V29ay898G3cwa7P3319AsfZzQ0dS6qb+i41uPxjwP8+Me1zWXlllW/2bCkyd71VPWJpmt4XsgZ7D6h/sOapjhIUsEWYJS1FKjcRD6G+m3jhbqXl0S1czFGOPG0gYbaZ1K/bSpEkvinTCknhN3BjrrJIbcvGAAMIcFgOMPp9C5yefwLXlqzPW4SqjaXlRusp1rm1J/pWO7pCYwDQvDjH8cefGRj6fpNX97W0tr9WFuHexIASRvsPqH+pyh6ei9RZWwhTILsDxIANUrdR27mTzw/Lno9ix2CY7+ShjqKKe+8FmhYfrVcVtNCNLkb2ZwbrJHsnMAAYIjx+kMZzS3OnxyuqJtcfcKuHOz+nIu9uYvb+tk3E07VtS11e/w47R/H3B4/c93Kl2ceq268u8bafFMIR/3DCqOxBFnzTzcDqzkGQOQmIzMQ9uRSx76VEu8act8nqel9Ew20LYRgWyQBDk9UGQeJKmM/Z1nmiqQ/Q+4PeLgjAFqX21/S1Ny18I31e3IHuz/n8swfPsk9Xd/+U7fbPxnw4x/XHnnivamNTY7H6s90zAKgGYPdHzTwmJwbahjNyE+ASWiAPhSk+VeSQfIcv0I48eTkKHZt0IVtm1SUd06gfttciCzxrx5UaVu4nOsbIu0TBgBDk9bTE5xqa3JcsrmsPGa30G0uKze0tbtnuj3+WaIk4eFRceyhRzdOqrY239nR6S4FgDTc2Dc8sQnJEptz48dEmXIICCc3G5kBMWSRHAfvFF3HYvb91RdSqBsk+4dZ1HtqBYSdObIbIqyXKFM+ZTSj98vZ9vfvMAAYovz+kLmr23fZ519U5w12X35I2bYjBR0Oz+X+AJ812H1B8n1Ydjjnm2MNtzW3OKdSiluLhzvOssxO9EWfAKNsAPmzABz1N1wi1L00P5p9Gyxiw1taoNJ06m+Sve2PUsqD0lRJlKa/c4W/jUrZZAwAhi51l7NnfP2Z9oIaa+zlAmwuKzc4unpKnN1eXPePYzXWJt1rb+652dbkmCVRmgH4TkEAwI2+dTdRW3YBo5R7aBkDlJokZ8V1YdummB3E9IbkszFSd3mO5KtbAVSQPaNBWJWLKA1bmdRLjkWrZDJG60NYMBjOkCid8sm2I4cAoH6w+/PPDhw6mRPihUvDYTHC3QrUqVBwfmOy1q5RJ7QRMvgHpMQbU4rOZs4y9jlz2+3xM7f84q9XNzY5rpEkmgX48UdnsaYpTr7q0Y1isLUUpHCpnHMCKEgcCXWMl5r+tkziu59mlMlxeU6AcPI5HfCuBRBsK42gmSAoUw6RxOxdioJVEeyy+FexGAD401P1H6jVyqieKBcvCCEcx7Fmnz9k6eh054bDohrkj5DVPl+o5Mg3Z8wQQwGAvbmLu+nOtXmdDk8ko39XYqLSkZGm3+31hb7KsaTaigrNDpVKGZcvicGk1ah4vV7d5xMBX3ltZ2lDY+dtkiTJqwHfd34AiKTQzJDAcWxcBLncqJsrqfvYVqn7aBZIwT4/IwSAASqaJE/1YvHMmzsAoLx/etp/RMcBTmjcUCj5zyyFSA4x45LaiCptKzvyOivAxqj1LxYDgGBKinbdg/ctrBrsjgwGny/IWWtbTN9825AmCGKeRp0wrbXdNSsQ4GVlVbvcvgyGIRn25i4uVs4J+LbKZmAYpjAgf+3flZ2ZvE+h5D6aPDH/0NhCc/3iBROHRf3wWHG4oi7tN0/87TqvL1gY9XV/CkFKwJWYoPCnpurqE1VKmyhKDlEU3Z6eQJuz2xefpS6jhGWZKkJlb7MbMIzGwoetz78neU9NhBCfASDJ+ABSDgRvvti08WbRZ6tiNZa4+rsPn3jSCGHPzcA78+W3QoPAJu4miZbdXOYVUQ2AYzEAgBprs3NSSV7UpjniUBsAwIdl5Qe/Pd54cO+XNdUE4G6/jCAgHBZNqgSFucPhUUGMjJ7q6tuMCo4dAzJH/8Zkbe0Is2ndeWMyd/z6gavi6oUwFLg8PmblL15d1NLqmitJNJr5G3xCgsKWnZlcQSk94Oz2NZw3JrPjogtGOUaNSvfqklR8okrhLywYMayDvcePAjz+8GD3oncUBavqQuUrPpQ69hSAFMoDOTNFVFTRYOss0frMHAD4OOqd7Cfh02tVUveRqZL7s1kQyehfmVLLaHK2KAp/2wDwatT6BxCjAQD6zuIFpUGXx1/V0xMI1tW3ja2ta/uZjGbUKpVidOWxBiPESABgPdliCATlZ/5nZyVbMzMMlfjxHxwbNu2f0GDrvE4UxWhN/fMJCVyDOcu4TxClrcXjLHWzZhTZZ88ocpXvjULraFAxI5Zsoz2nZlN/oxmoICdgZEASMqSur5aLjv2HWNPUPi9XDTQp1A3hI7cYqd+2EqSg/EqYhPMSVr2dMU46JLfe/3+DSTsxzqBTw8xLx9rDYfEz+G4NtM8Yhuh8vpD8CDTKrLXNBpfLJ7tQjFqdcOqCIktMBDPDjdvjZ7Z+Vnml388XRDr1TwEEhYKtGzUydVNWRvKqi8bnPvvGy7d++uzj11TNnlEUUYUzFDsUmfMcTMqP3gIgDSB/W6CKhjonh6sfuyaafesvwonH1UC4JTTQPBXkj/6DoEw5SHSFW9m8n/dL0IMBQByYNrkg2NjkaAOAITH12eHwqH3+kOzCP5JIXeaslGA0+4R6Z/3GLye0dbjmCoIYUYEWQoDXaVUVFxbn/O68MZlPvfbnW7c98dsldeZsU8yvbaO+Y0fdcJBJvvBTkH9aIANUSKP+psvDp9eOj2rnokx0H2eASciVXJUrgIpa2Q2xGidRJn/GZs6rZJTJUezh/8EAIA4Y9BqQJDrY3YgaQZAYSZRkP3sMSwzNLc6YmdEYLtweP/Pp9qNXhkJCHkSwfMgwJJieqt9u0Gvuv375JZtXP3dDbawkqKL+weqL/EzK5FeBTbDKPyeAciB4i8WGt5ZLvCtml6+FE8+qJU/1jRB2FUbQTBA47X4m+aJdnGWZ3FoK54QBQByosdqVebnpQ/qM7L7gQ8Io66kWLB40wHZ/UZXf6fDMjGT0TwjhDXrNvqzM5N9+sOHeg7Nn4lT/cMHm3l7PmKZtBMK1gLylAAZo2ERDnXPE2hcviXb/oiFs28SRpPyp1F09HwDkF2BTGOyM2rKTNS+ujV7vvg8DgDiw/yurMdmguQgAZE0nUQrOjHRDzKyZZ2cZvTqd2in3+gZb57jyitNGtwdzAAfS5rKvZwqClAvyR/8SwxDrxJLRv1uz+pZjBh3GcMMJk5AsMSk/epckZlUCMPJPCxR9eULLx9eK7uMxNSiSeBdIXQe0UsfOlSD6cmQ39F3i3w4muWQHa5rSr0udGADEga2fVWbYW5zTQd6L19njDZ7MHZUWMyOt9FRdUJ0ou0QouN3+cWp1wtJn/vAJnjM/QJrsXeqak80XhnjZpUwllmXqpk7KX7/yxh8f0uPHf1hSjL6tg0mfvRYIsVMqMyGQimoIey4Rap6+Ksrdi4hY/xpHGPUC6j0zCyIZ/SuTa0lyyWfsqBvt0evdf4YBQIzbXFZuMKUkTe7o9OTIuV6hYL0+X7AtPVUXM0lzBflZTo1GJfswC4lSdd3p1vl+Pz9zc1m5/CQb1Gtf7K8ppBItplTevn9CQEpO1tQUjbW8PbbAHDPPIhp4TOYVexn9BbsJiWQWIJgleaovF1q3xcQ5AZLPBqDQmaT2HSuBhuUnyDIJzrOj//2MZmS/VzWN2UQKBPDmhi+MBw/XXl19wn6jKEqyprvSTLr6UTlpLeZsU8yUyB031uKsPNZoBaBOACLr/ysQDOfv3V9zd2OT48Inn9v8jV6nHjYfFYYhfMmE0bUAwE8sybMNxD33HbBOoFR2vX+JYZi6OTOK/nbX7XOHZYlv9H840xR/+MQzqyVX5UwAmgNA+vxMUZBUJOyeJJx8/mqR736BVSYPahKpUPM4R6XQnTTYViK/FRoEhe4gkz77I9ay1AlwW/Q6+ANiMgAYMzrj7tKLXpa9RjwUhHiBe/3tvWZPj39cKCTIXXd1apMSy6dPK2x5/eVo91C+JK2qw9HVU61QcN5wWJS7jqcMBsMT6urb8hsaO/2EyN1fHH8ogLT2jc89AGAbN3GVZ1zhiOp5l124d8a0wkpzdkq/JEYcPlJXFArJn/5XJSjsRWMt26LaKRS3WMtyq9Rzap3Utu1hOSWCCQADUiiDBtsXSvWv7weA/f3QzV4RHQeABloKw8dWLZFX7vgsTucgidmfM6Ypxxil7F3SfbvlgNylb3QNts4ltibHsN4WRAEYUZSUoiByQIisvye1OsEZDPBfZ6Tro3J2dLTMmVks3PrLVxvqTrfVN7d2WyJoShkOi8YIgoh4lw8AUF3TNLfG2nzdH//y98pbf/nqlzdfP71sYsmYqK0f1ljtxmU3vmSgtO8nugEAMAyRSibkli9aUNpv25nQvxIdBxh69vkYSATAzpqmnDPhmNGMFML1b7wmub6eB8H2UpA1s0Q5EHryRfv7CyWf7SgzSOcECDVPMUDFVSAGciNoJgiE3c+kX1bGZV4xYLOZsRgAcOFwBMUThhpC5F7pzEzX75g+rfDY7BnFMRdMzZlZVHumoWMnBSgmAMP1Ax4pFQAAHxZVAKKB58M5Xx2unfzt8cYf3/zztVsee3jxe+ZsU8QvxdZ2l0nBMTmhIKhA3uMoTJ9W+Plf/xRpT1Bv8YeWqwFgPQAdyN8tLwC5CwD29eY/Zs2L2mjA/op4+i8WCjRL1qMl8QYqeGYJp178EgDK5DQRKZI5b4Fo/d0lEMn3VJFsY5Iv+ozNmD0gS3r/EIsBAIoCtTrBGRakL0ePyoiZY4D/WWGB2WlM1lb6/CFbl9OLAUDkGEpBxfOiOSz40w5VnCpZduOfJ7654YtXb7j20qORNHyytsXCMIwBiLz1f0midXm56XF3lGtck0IAABYAGMidMi7owwFfjNIAgm3TB5K+eCG4v70K5OWXMMC78sT2z38iOA4c5UxT+j1z/p9JvIvj90xbBTQs+2wTIKyXELKL6Is+ZvVFAzpYw10AQ5PTmKz5YNGCi/cvXlgac6N/AIDCArM045LCg5TCRgAY1vkeUUW+CwTCYcns6OpZ9Npbex6+64F1V7k9ftm/626PXwsRDBbS0/S288ZkxUwdChQ7OMsyPztiyVMAEEFyqKQFwTddrH58wLcFirW/v5WGHCUg//eDB0VyBZO9+BNu9O0DvlUbA4AhKDsrufLiCaO3TrhgVEyt/f+7+XMnuKZNLtifnWWMaISKvo8QYCilJkeXZ/6hr+ueuPGONdfLDQJOnmo1C6Ika1mOEJCyM5NbcN8/+iFMysRjTMbcDyJqRPSlSaH2SwXbpnFR6tY5ST6bQWh4804ASf6efybBC6zqEFGP2DtQiX//cvsBvyPqVzpdYq1ep1lXeF52+cSSvJjOjDdnp8C4880Vep16nV6X2K8lL4cphlJQenoChbYmx6ob71jzMzlBgCCKDFAq+11h0GtipggVij2svkhgkkseBS6pTm4bFKga+K7pwomnfioO0DkB4cp7ngIpnAcg75wWCsADq9rPjb5jvWL0bYNy0BsGAEOIQsG2JGlUa5csmli2cH5JXJwcuGB+Cb/immk7UoxJ6xQKNqZnLOIY0+MNFtjsXQ/edMeaayJZDug7IuXnZZwcuPuheESSS5ys+aevg8ylAAIAIPEmCmSuVPv7mVHt3H8gtG6bJDnL5wBQJcjMjCWcro0xXLST0Z1vjXL3eg0DgCFCwbFt2ZnJr9x1+9y3p/2owBMvU64GnRry8zIcK6695L2MNMMHgPkA/YXp6QkU2Oxdv1px2yvLBvLGHMfG9EwUGnySYz/QYPufQJUZWRZ8qL1QsG28XPQ19usLUKj+fw8DFXLkjv4BgAeJP8SOuvld1jRl0H4/MAAYCig4dbrEN1fdfeWa88ZkOszZKYPdoz4pLBgBKUZt/Yprpq0dYU7BIKD/MJ6eQIbXG1z49AsfTx3sziD0D8qCVcCaFwW5vDvvh4gSAkELhJsvVN6zJFp9+3dh63M30EBzIQBl5I7+QWGoZ0et3EiS8gf1XYcBQPxzmrONH9x9x+VvZWYmOwoLzIPdH1lmzygGjUZVs3LFzBfN2UYMAvoJpdTY1Nw1a8fuY1fuP3QyozfXELkvue8w9han/C1SaNggymRJav+8nBguOhRRQ+HuLMnfOCPcsiXq5wSIPXVG8cwbK4EKFpD7/SSsnwDZz1qu+ZTVRFIHLXIYAMQvScGxLZYRptV/emHFr5Yu/pF1bJx+/P9h0YJSWLr4R9anHln66OhR6X85mxOA08dRRL4rLGV0u/1LHnny/bnr3tl7zndAdpbRwbKMzOpkFOzNzhHyrkXDCWuaAori54JM6rS7AUhbBE2pge+eI9Y8Nj9sfT5q3zjRcYARav/wcyr0jIdItv1xSYfYsY++ziblDvoWbQwA4gmlAAASIeBMNmh2X3ThqAfff/ueJ8cWjBhSo+VJF49p++ufbvld0VjLEzpd4n5CcDYg2vwBXqfg2Gn+AH/ObVPZmckOQoisAIBSYE6easm3N3fJuRwNM4zGAoRwLezI616ESIJ/0a8DSmZTMTBV4qOzCYWGHMVSyyfLgQry6/2zahejG/u5wrI8slmOKIm5SoAMQ4IAIIDcs6IHCwFOkqgS+ufPVCIEJMIwzoQEhTUvN2PfrTf9eN2cGUX1b639eT/cbvCdPdRmzUtrth/7+87KFU32rivCgphGKXCAgWs0GJtbnXPf3rDvq82fHK5atHDiD/6+6XSJfgCQvavE6wsae7xBEwA45LaBhg8mdyUvVKx8ExT66yDsLgR5v+9qGmydLDX9baqoHlEOABHV1xdsmzih9g/3A9Bcmf0BAOCBcBVs/n2bADZH0p2oibkAYPrUwicWLSzdnpSkiqvjXb891ljw+tt7bnN7ApfA2RrtEZBYhvBAiAAAXoaQuvQ0vW36tMLP5vy4ePfEkjz7B+uj0Ok4cNftcw+63L5Dz764ZUHF0dOL29rdUwVRzJAkykEMPr/xJBwWVcZs7YW+AJ8HAD9Yh6EgP9smipIVvjtcpq/Z1QwhJL/im/pSAMDTAAcQBQASh0to7Hclgl1EP+534uk1vweQepWr8j00bKCMYrHUdbBKcOz/lDNNlfVnIfEuEM+8cQX11U8AKsov+sNq2tjMy9/nUqfGTHn2mHuBCqJk0yUlWieW5A3KyU4RqLnzvjeMBw7VFgSCvBkiGKUmKDlnaUneu1mZyafOG5NZc2HxyGOFBSMcn38K8NsodjheGPQaCQA+dnv8ZR9/WlG6a8/xK49XN00I8eFChiE6AAKUUvm/mPGIAoiSqASQd1LkWUavN1iye29Vjtvjr/2hraMTS/JshRc/4AK5HxMK3Od7q2a4Pf5t8bI9dSggAC3w3c9AisrAjbMs40NfzNlOtGOupd6Tc0Hu+zTYWiB1H72cSb20EgBkbTEU23bqhPo1d4EUzpfdD8J6CafZy419/B2A2DkVK+YCgHj29P9b9saSFavHNNm7bhFFSf4BN4Tw6am6r+ddNn7TxJIxg54oEiv0OrUEAIcA4JDb42dO1rZYjn57pjgcFrWVxxvP5/kI1ubijD/Aq6pPNE1gGGa8KEqyl546HJ48jzeQf+p0224A+MFnrbDAfOZUXas3GAr3uSSwSCn3Vfmp6fsOWLUAgGcCDIDEBe1eALhwsPsRCW7sox6x7bPfi776cUDDctPl1SAGZoq2TQfCtk2bFJZlfXqfSj4bI9S+uAzE4HgAecdhAwAPrKaGHXn9+4zSEFPvcwwAokivU0uHK+peufP+dXk9PYFZAKCT004oFDZt2f7NjRkZyTUuj/+oAUdN33M2GGg4+zPsuD1+eOTJ9zIamxy/PXmqdY4kUblbnozpafoLWlq7s+C/jJBKL8q1NjR2OINBPg0I6dMoiAAwLMsUVJ1ougoA3pHZTzTMsKYpAv/NPUeZ1GkfSB17fin7A8x3mYHTzqM9J6skvruSUSb3+lKx6f0c0f7ezUAFWYX6KQAQwvmJKvWQomDVp3La6E+YTBVlE0vyGlYsm/pqklZVAfITp5SCIJa+/9GhO1/44xZTNPuHhga9Tg2rn7uhLcSLv0tP09dBBEl6QCGjqsb2X5+zCy8YVQMANSBzN4AkScptn1X+5MOywxjNol5jx9zrIQrDOqI0VsF/maE6BzUNtMyRmj+aJTaX9fr5Ex0HlGL7Z/cCYQpA5mCZAOGB01Sy5//mVTnX9zcMAPrBXXdcvv3887I/UShYJ8hcNxVFSety++c32DpveXPDF7JOYkND38oVM5wXFuesJ4TIPgc9EOQzaqwt/zUAmD2jqC4xUdnAsYysQINS4JzOnryq6qYr3J54S+9Bg4XVjpSIJtdGUqasB8LK30VCw0Yg3DzJebhE8tl69d0T23eV0p6Tk0Di5QetROFi9MV/V2ReUSW7jX6EAUA/+fPvb/yzMVn7MSHEI7dcdCgU1lVbm+dV1TTNrbHacbkGfc+iBaX+iqP15XpdYr/XSpg+rfArZQLXRuUFtYwgSoVl247c8fa7+9Ki3jk0ZCkKVnmo1/oBqLIimQUAGmgqlRxfXiY2vXfO/Kyw9XmD2PzRHUDDhSB7qZzwwKrKuQt+v0be9f0PA4B+oteppd88+JPVel3iPiDgkdmMyu8Pluzcc/zGjz+tKHB7fFHtIxoaSibk+nNGptb0932WXz15r4JjyxlC5A7huWAoXFJV03TTzt3HcCkA9RpX8KsOJmXiWmASItnVoAaA+ZLzq8mi48APftSlUDdI3rolEPaMj2DbnwRMQgdnWb6O1YyU+/7vdxgA9KM5M4qtC6+46HWNOuEYyI5ciUoS6aQv9p9YufqVz+Tth0VDWu7IVN6gU/f7dq/CArNzfHHOgQQl10GBylraEgRJfeBQ7dLPv6ieVWNtGl5bN5EVuk0GAAAOyElEQVRsXOYVQQh1HSTaMfsgglkACHXkUb/tcrH5ox/cVSCc+oNZ6txzJYiBPJA9+me8JCF1F5t/b5nMng4IDAD62a9X/aQsPy/z7xzHyp6i5cOCsaPTfVVdfdvVO/ccx5ETGjQ//cmkXWp1QjlD5J4NAJwgioW79hy/9+VXd07eufs45regXuHOf7iDJGa9CqymLoJm1DTkmC91fTU9fHrt996lovu4UnIfvx4kvhRAkhugCsBprdx5D7zMKJNjatvfv8MAYAA88tCi17IyDGUAspcCwB/g06prmhZu31k5yd7chfkA6H81t7m4Hl9Q1jYlAACWYYIajbJXyX2zZxTVF4+zfK5UsG0gM8GVUlB6fcHJ5RWnn/iwrHz+n9duT8PEQHQurKFIYDS5NYxh/EYA2QEogOA3AhXnSd1HCiS++1/+ldj0XjF1VV4OYiCCOi6sl9EV7uAsyypktzFAMAAYAIUF5o47bpn9skGvLgf5pTlV/gA/6cCh2puf/WP0j7lE8enNDV9wjq6enIbGzvFy21CpFC0TLhjV6zPYb7pu+rakpMSDjMwtgQDfBQGenkDpwcMnHz54+NTtt/zir+M3l5XLDmLQ8MDm3+ugQs9mSDAdBblbXwmoqd8+k7oqZwonn//fZ06wbTJInfuvBSpFkPgHAij0lVzB/7wu8/oBhQHAAFm0oLTy4gmj1yckcLKPuZQkqvX5QzNP1bVe+9Ka7VgfYBizN3fBu+8f0B799kxJp8NzbZfTmyuzKV4QpLaszOReH5k2sSSv5cLinA8TErgGiKzWvDIUEsZVHm98sL3D/ezmsvIlC5e/UPKHP28111jtmB+AvodRGoA1X21n9EVvAaPqddD6PTRsoBL/U+qtKxFdxzkp5GJEx5czaaDpEiqFZBVwO9tBJ2u6ZANrmtIgu40BhFPJA+ipR5e+87OVL4+pPdX6S5BZJZDnBYOjq2fmN8caTh6uqNsch2cmwOGKOiX0/VAZBAB+f4g59PUp4x33vpERDIXzGAJLG2yOCQAga2udgmM7Qrxw/MLinD7tsX7ykaVlS1f8sbip2XmbKEoZEMFgQhQldVuHe7qjqyfflJJkP/DVyfIdnx/7asYVj3cU5Gd7RuWkehNVSikpKTF4/nnZcfe8R5tWq/Kas4zCcD1XQTH6NlfowKLdJDH7x9R3+ioAkBcsBlvHUTbxMrFxvZWoLSA5DiwGMVBA5G/7E4jasps7/+FNAGvlNTHAMAAYQHqdWqo+YV99292vFXQ6PHNAXhCg6vEGx397vHH52jd2Nbg9/v3x9iJ4fvWnuZIkzRFFKb46HgMIAEMYcl6Xs2dcV5fXDETeh/8fDAaNLS83vd6cndKn6VSDXi3t3HP87adf+HhUW7vrCkmSTAB9KxH8zwiAUhSlnPYOd057h6uEYZirtRqV60xjR0tHp9tBGMJLEnV9tOXrTrn3GCqmTMp/b9aMogaIw5P+ooU97z67eOrPG2mofQIIXrlLomoads2Xek5+S7ynMyDsmQpUkP9OYhPb2KxFrzMaS9ycd4EBwAAbe77ZsfaNXS++/vbeLLfHP1lmM2p/gJ9afcJ+430Pvd0GAJFkxQ6449W2QqD0V0AIbmuMBInscoYQf4KSq5hxSaF13St9v372jKKGp1/4eF3ZtiMZLrdvJqUyR2LfQ1SSRC2enoDF0xMojk6bQ0dBflYNHxbsEEn55zjHmaYG+SN3VJDEEdtpz4lbQe4sAO+00EDTzZR3Z4Doy5LfI+IluoIP2Nyb9wLcL7+ZAYY5AIPg4OHaQ3m56es5jpFd2lKSqC4UCs9ydHkXvbnhC8wHQH0V1GpVVRpNwp4F8y6SnZfy6weu2peVmbwhSZtohWE8IkUDjyv4VRuw6vdBYYikCJYaAs3TQfTKrvcPAABKo5XLu+uVWDvt71wwABgEf3r+BilnZOqb2ZnGdwCg18lX/y4QCJuaW53zdu2tml59wj5sjsJFkeM4xpWcrNk1e0bRUYNOE9GHe90rt787ZnTGi0plxEmBCPUao7EIbPqsGqLN+xswStnv0SjwMsbS9VzmFbWD2AdZMAAYBHqdGhbOK+GvWTLl5Yx0/X6QGwQQUPd4AyXWk83Ln1u9pRj3UqNeCmrUqmPJBs3Ou26f+4NHAPeWXqeWnnvimveyMpJfUSpYG2AQgAYIO+omJ+E0O4gq4yAM1pKIKquCzb8/Lo+5xgBgkEwsyZNaWrsbSi/KeyUpKTGCyJGog8HwTFuT49rnV2/JiVoH0VAVVKuVx0ZaTBvv+8W8qBUqMWen+F985rrXtNrEZ3VJuByABgajNEhs9qI6kmj+EDhtv5fD/h6icLKpl67mDEX9fhhXf8AAYBD9+oGrhNY2126LOWUjx7Gy97SGBdHg8fjn1J1un7u5rFx+BSs01AXVicq63Jz0D+ddduH2iSV5Uc1WLiwwu7Z/9NBfLSNMT6Sl6soBIC5fiii+cJZlHlCm7CMJqbthYGcB/CTpvE+ZjLmfDuA9owoDgEH2zGPLghNL8t7NsZg2QwT5AD2+kOVMY8fiT7YeKcVSweg/SUjgHBnphm1jcjM233DtpbIT//4bvU4tvfGXW98rHmt5bNTI1M0AFIMA1O+4/LttkJD6CSiSB25HFKe1MxmXvUz9jXGV+PfPMAAYZObsFBgzOsP5o9Ix6zLSDeVy2yEAak9PoLSuvm35rx77W2E0+4jiXlCpYO1Gg3ZXepp+wzOPL+/Xl6Rep5Fe/sNN2xdfNXG1OStljVqdUN+f90OI1RfxjDa/giiNZUC4gdiH7yVJ579Hu746qhh92wDcrn9gABADFi0oFQLB8LG83PTXdUmJsl/OkkR1Pd7A9O5u74KnX/jYHM0+orgVTExU1pmzU941GrWr//js9VUDdePisSOqHrh7/kupKUmPmbONuyguCaB+xBX+to0kpP6dJKQeBQD5hwX1AknMrmSzrnydO++BuB39A2AAEDP+554rgylG7Q6LOeVViOBFGQqFTW3triurTjTN3LnnuPya1ij+UeATE5XWMaMz1l9QNPLVzRvuqzToI9vy1xcTS8bAj0rHtN1644/fnXTxmEdHjjCt0evVNYCBAOoHjNIgMaapNaAwbAEmoT+3BXqJvngt9VjtrGlKP96m/+FacYzQ69RQY7V73n3/wGaPNzDW1tQ1HwBkJPQRdY83OO50ffvyv7y6o8Ht8e+Lt1LBKHIsy3h1SYkHLeaUDdMmF+y+6/a59sHoh0GvAQAQDlfUHSosMDe8/9GhIyZj0ozWdtdcvz9kBFnPOEL/maJglSP01dIdNOy6GIKtCwAg6vVRiDZ/O9GM3s7lrBAAXox28wMKA4AYUlhglt7c8IXN7w+9HgoJlvYO93SZTak9PYGpSiV33S9XvdkGAHFXoALJQwgJJmlV1vQ0/W6VSvnR/b+cXxntbH85JpbkSQDQsrmsvKzB1lm1fee3X6qyjVMcXT1Tu7q8OUAwEEDRwY65q5ZWP76VCr5SEDw5UW2cSXAwhgteIQq9i9FYotr0YIh6AJCgVAgZ6fozkiQdlHN9qinJoVRyw3YP8Q3XXsrf8+BbR81ZxrUsQ5SCKHFeb9DgD/D/mM5XAcA5z02XJKr19ASm+/yhky+t2f7OXbfP7ZesbxQDKAgMS9qSDZoWY7L2oCCIf58764Ka65ZPa9Hr1DH1u7RoQakAALWby8rrm1udR/d+eWKrKkFRyCnYyzo7Pbn+QMgEQDAYQLJxpqnBUMWt+2mwbTuEPTcAidosgJfoxm4CoBXMyOsFgF9GqdnB0w8BAOfPTE/+lGGYo3KuT01JqlUquWF7yAUAwGMP/9T70KMbt7EsYw8Gw4xddKr9AV5NCAFjssZgTNZmEUIULMsYCPkuGAgGw4ZQKGwEAHB5/EafN2QMBnjmTGPnPIaQuhqrfXthgblfE2PQgJGAQgfDEj4tVWdPNmhrGYYcCQvisctmFjX8bNk0u0GvkX4Rw8nJZwOBOntzV/2+A9byQxWn9vG8kGUy6SxaTUJRKCRkudw+s9sTMAphUUUJVRMgmNOCeoU7/zc2ofKeLRKVSoDvLIlKo6osK6Mf+zqTXOJlE845BosLUQ8ACgvMPADUn/3ps/XR7U5cOrtm7wGA/f/8z90eP5w+064Mh0V1iBeYJrtD7XR6VQAAjTaHur3TrQYA4MOi1ucLqgEANOoErTk7xa5U9v6vmgB0UDnPBiG9KmY0rnCEVZKkZ0VRwvMLZKCUSt0uv83l8nnS0wyuiyfkOsYX53TMnlHk2vI3gFj+8P87c3aKBN/Vvzja1OyoPNPQqT51us1krW3RnTjZbPD5QlqlglWlpupMqgQFzgwAgDFZW6VUcHGdfd7fWI1FCJ96qZz6bdsp4XKAChF/6xj92A1AuFrOsiymZtUigTkAceRsYMDD/1W7Omc29UdWu1Kp5BhVr2dVSBsQWEWA9vnjTAD8APScSw3/c8+VdQAw8GU7hwhCQMrKSA6as1P4qnKA994a7B5Fx4hskwQA3rM//8ve3MU4u32qQJCP0nHD8U2rVXnNWcYh8xHqL+zI6xxi/dq3gLCHgQoR73gj6pwKNvPyIMAz0egeQgghhBBCCCGEEEIIIYQQQgghhBBCCCGEEEIIIYQQQgghhBBCCCGEEEIIIYQQQgghhBBCCCGEEEIIIYQQQgghhBBCCCGEEEIIIYQQQgghhBBCCCGEEEIIIYQQQgghhBBCCCGEEEIIIYQQQgghhBBCCCGEEEIIIYQQQgghhBBCCCGEEEIIIYQQQgghhBBCCCGEEEIIIYQQQgghhBBCCCGEEEIIIYQQQgghhBBCCCGEEEIIIYQQQgghhBBCCCGEEEIIIYQQQgghhBBCCCGEEEIIIYQQQgghhBBCCCGEEEIIIYQQQgghhBBCCCGEEEIIIYQQQgghhBBCCCGEEEIIIYQQQgghhBBCCCGEEEIIIYQQQgghhBBCCCGEEEIIIYQQQgghhBBCCCGEEEIIIYQQQgghhBBCCCGEEEIIIYQQQgghhBBCCCGEEEIIIYQQQgghhBBCCMWc/w9AujkoQMz0qQAAAABJRU5ErkJggg==;" parent="1" vertex="1">
          <mxGeometry x="215" y="40" width="30" height="30" as="geometry" />
        </mxCell>
        <mxCell id="PN_kPtdczEujCwIuME3x-56" value="HDMI Phy" style="rounded=0;whiteSpace=wrap;html=1;fillColor=#f8cecc;strokeColor=#b85450;fontFamily=Iosevka Term extended;" parent="1" vertex="1">
          <mxGeometry x="683" y="139" width="70" height="20" as="geometry" />
        </mxCell>
        <mxCell id="LkZ5-12aS9HRBS8gZSQW-1" value="WB Intercon" style="rounded=0;whiteSpace=wrap;html=1;fillColor=#dae8fc;strokeColor=#6c8ebf;fontFamily=Iosevka Term extended;" parent="1" vertex="1">
          <mxGeometry x="125" y="204.99" width="113" height="40" as="geometry" />
        </mxCell>
        <mxCell id="LkZ5-12aS9HRBS8gZSQW-3" value="16KiB&amp;nbsp;&lt;span style=&quot;background-color: initial;&quot;&gt;I$&lt;/span&gt;&lt;div&gt;&lt;div&gt;2-way SA&lt;/div&gt;&lt;/div&gt;" style="rounded=0;whiteSpace=wrap;html=1;fontFamily=Iosevka Term extended;fillColor=#ffe6cc;strokeColor=#d79b00;" parent="1" vertex="1">
          <mxGeometry x="166" y="277.99" width="88" height="60" as="geometry" />
        </mxCell>
        <mxCell id="LkZ5-12aS9HRBS8gZSQW-4" value="" style="endArrow=none;html=1;rounded=0;entryX=0.5;entryY=0;entryDx=0;entryDy=0;strokeWidth=2;fontFamily=Iosevka Term extended;exitX=0.75;exitY=1;exitDx=0;exitDy=0;edgeStyle=orthogonalEdgeStyle;" parent="1" source="LkZ5-12aS9HRBS8gZSQW-1" target="LkZ5-12aS9HRBS8gZSQW-3" edge="1">
          <mxGeometry width="50" height="50" relative="1" as="geometry">
            <mxPoint x="-7" y="303.99" as="sourcePoint" />
            <mxPoint x="-7" y="460.99" as="targetPoint" />
          </mxGeometry>
        </mxCell>
        <mxCell id="LkZ5-12aS9HRBS8gZSQW-5" value="32-bit" style="edgeLabel;html=1;align=center;verticalAlign=middle;resizable=0;points=[];fontFamily=Iosevka Term extended;" parent="LkZ5-12aS9HRBS8gZSQW-4" vertex="1" connectable="0">
          <mxGeometry x="-0.1861" y="-2" relative="1" as="geometry">
            <mxPoint as="offset" />
          </mxGeometry>
        </mxCell>
        <mxCell id="LkZ5-12aS9HRBS8gZSQW-6" value="" style="endArrow=none;html=1;rounded=0;entryX=0.5;entryY=0;entryDx=0;entryDy=0;strokeWidth=2;fontFamily=Iosevka Term extended;exitX=0.5;exitY=1;exitDx=0;exitDy=0;edgeStyle=orthogonalEdgeStyle;" parent="1" source="PN_kPtdczEujCwIuME3x-2" target="LkZ5-12aS9HRBS8gZSQW-1" edge="1">
          <mxGeometry width="50" height="50" relative="1" as="geometry">
            <mxPoint x="213" y="255" as="sourcePoint" />
            <mxPoint x="213" y="288" as="targetPoint" />
          </mxGeometry>
        </mxCell>
        <mxCell id="LkZ5-12aS9HRBS8gZSQW-7" value="32-bit" style="edgeLabel;html=1;align=center;verticalAlign=middle;resizable=0;points=[];fontFamily=Iosevka Term extended;" parent="LkZ5-12aS9HRBS8gZSQW-6" vertex="1" connectable="0">
          <mxGeometry x="-0.1861" y="-2" relative="1" as="geometry">
            <mxPoint x="-29" y="22" as="offset" />
          </mxGeometry>
        </mxCell>
        <mxCell id="LkZ5-12aS9HRBS8gZSQW-8" value="" style="endArrow=none;html=1;rounded=0;strokeWidth=2;fontFamily=Iosevka Term extended;exitX=0.25;exitY=1;exitDx=0;exitDy=0;edgeStyle=orthogonalEdgeStyle;entryX=0.25;entryY=0;entryDx=0;entryDy=0;" parent="1" source="LkZ5-12aS9HRBS8gZSQW-1" target="PN_kPtdczEujCwIuME3x-21" edge="1">
          <mxGeometry width="50" height="50" relative="1" as="geometry">
            <mxPoint x="260" y="255" as="sourcePoint" />
            <mxPoint x="160" y="320" as="targetPoint" />
            <Array as="points">
              <mxPoint x="153" y="260" />
              <mxPoint x="153" y="390" />
              <mxPoint x="246" y="390" />
            </Array>
          </mxGeometry>
        </mxCell>
        <mxCell id="LkZ5-12aS9HRBS8gZSQW-9" value="32-bit" style="edgeLabel;html=1;align=center;verticalAlign=middle;resizable=0;points=[];fontFamily=Iosevka Term extended;" parent="LkZ5-12aS9HRBS8gZSQW-8" vertex="1" connectable="0">
          <mxGeometry x="-0.1861" y="-2" relative="1" as="geometry">
            <mxPoint y="3" as="offset" />
          </mxGeometry>
        </mxCell>
        <mxCell id="LkZ5-12aS9HRBS8gZSQW-10" value="" style="endArrow=none;html=1;rounded=0;exitX=0.25;exitY=1;exitDx=0;exitDy=0;entryX=0.75;entryY=0;entryDx=0;entryDy=0;strokeWidth=2;fontFamily=Iosevka Term extended;edgeStyle=orthogonalEdgeStyle;" parent="1" source="PN_kPtdczEujCwIuME3x-4" target="PN_kPtdczEujCwIuME3x-21" edge="1">
          <mxGeometry width="50" height="50" relative="1" as="geometry">
            <mxPoint x="327" y="473" as="sourcePoint" />
            <mxPoint x="327" y="518" as="targetPoint" />
          </mxGeometry>
        </mxCell>
        <mxCell id="LkZ5-12aS9HRBS8gZSQW-11" value="32-bit" style="edgeLabel;html=1;align=center;verticalAlign=middle;resizable=0;points=[];fontFamily=Iosevka Term extended;" parent="LkZ5-12aS9HRBS8gZSQW-10" vertex="1" connectable="0">
          <mxGeometry x="0.0111" relative="1" as="geometry">
            <mxPoint as="offset" />
          </mxGeometry>
        </mxCell>
        <mxCell id="LkZ5-12aS9HRBS8gZSQW-12" value="" style="endArrow=none;html=1;rounded=0;strokeWidth=2;fontFamily=Iosevka Term extended;exitX=0.5;exitY=1;exitDx=0;exitDy=0;edgeStyle=orthogonalEdgeStyle;entryX=0.25;entryY=0;entryDx=0;entryDy=0;" parent="1" source="LkZ5-12aS9HRBS8gZSQW-3" target="PN_kPtdczEujCwIuME3x-30" edge="1">
          <mxGeometry width="50" height="50" relative="1" as="geometry">
            <mxPoint x="100" y="300" as="sourcePoint" />
            <mxPoint x="141" y="505" as="targetPoint" />
            <Array as="points">
              <mxPoint x="210" y="380" />
              <mxPoint x="672" y="380" />
            </Array>
          </mxGeometry>
        </mxCell>
        <mxCell id="LkZ5-12aS9HRBS8gZSQW-13" value="128-bit" style="edgeLabel;html=1;align=center;verticalAlign=middle;resizable=0;points=[];fontFamily=Iosevka Term extended;" parent="LkZ5-12aS9HRBS8gZSQW-12" vertex="1" connectable="0">
          <mxGeometry x="-0.1861" y="-2" relative="1" as="geometry">
            <mxPoint x="212" y="-2" as="offset" />
          </mxGeometry>
        </mxCell>
        <mxCell id="LkZ5-12aS9HRBS8gZSQW-14" value="WB Intercon" style="rounded=0;whiteSpace=wrap;html=1;fillColor=#dae8fc;strokeColor=#6c8ebf;fontFamily=Iosevka Term extended;" parent="1" vertex="1">
          <mxGeometry x="304" y="173" width="113" height="40" as="geometry" />
        </mxCell>
        <mxCell id="LkZ5-12aS9HRBS8gZSQW-15" value="" style="endArrow=none;html=1;rounded=0;entryX=0.5;entryY=0;entryDx=0;entryDy=0;strokeWidth=2;fontFamily=Iosevka Term extended;exitX=0.5;exitY=1;exitDx=0;exitDy=0;edgeStyle=orthogonalEdgeStyle;" parent="1" source="PN_kPtdczEujCwIuME3x-3" target="LkZ5-12aS9HRBS8gZSQW-14" edge="1">
          <mxGeometry width="50" height="50" relative="1" as="geometry">
            <mxPoint x="386.5" y="265.5" as="sourcePoint" />
            <mxPoint x="350.5" y="350.5" as="targetPoint" />
          </mxGeometry>
        </mxCell>
        <mxCell id="LkZ5-12aS9HRBS8gZSQW-16" value="32-bit" style="edgeLabel;html=1;align=center;verticalAlign=middle;resizable=0;points=[];fontFamily=Iosevka Term extended;" parent="LkZ5-12aS9HRBS8gZSQW-15" vertex="1" connectable="0">
          <mxGeometry x="-0.1861" y="-2" relative="1" as="geometry">
            <mxPoint x="9" y="-2" as="offset" />
          </mxGeometry>
        </mxCell>
        <mxCell id="LkZ5-12aS9HRBS8gZSQW-17" value="" style="endArrow=none;html=1;rounded=0;entryX=0.5;entryY=0;entryDx=0;entryDy=0;strokeWidth=2;fontFamily=Iosevka Term extended;exitX=0.25;exitY=1;exitDx=0;exitDy=0;edgeStyle=orthogonalEdgeStyle;" parent="1" source="LkZ5-12aS9HRBS8gZSQW-14" target="PN_kPtdczEujCwIuME3x-22" edge="1">
          <mxGeometry width="50" height="50" relative="1" as="geometry">
            <mxPoint x="380" y="265.49" as="sourcePoint" />
            <mxPoint x="409" y="350.49" as="targetPoint" />
          </mxGeometry>
        </mxCell>
        <mxCell id="LkZ5-12aS9HRBS8gZSQW-18" value="32-bit" style="edgeLabel;html=1;align=center;verticalAlign=middle;resizable=0;points=[];fontFamily=Iosevka Term extended;" parent="LkZ5-12aS9HRBS8gZSQW-17" vertex="1" connectable="0">
          <mxGeometry x="-0.1861" y="-2" relative="1" as="geometry">
            <mxPoint x="-12" y="1" as="offset" />
          </mxGeometry>
        </mxCell>
        <mxCell id="LkZ5-12aS9HRBS8gZSQW-19" value="" style="endArrow=none;html=1;rounded=0;entryX=0.366;entryY=0.003;entryDx=0;entryDy=0;strokeWidth=2;fontFamily=Iosevka Term extended;exitX=0.5;exitY=1;exitDx=0;exitDy=0;edgeStyle=orthogonalEdgeStyle;entryPerimeter=0;" parent="1" source="LkZ5-12aS9HRBS8gZSQW-14" target="PN_kPtdczEujCwIuME3x-4" edge="1">
          <mxGeometry width="50" height="50" relative="1" as="geometry">
            <mxPoint x="350" y="255" as="sourcePoint" />
            <mxPoint x="333" y="288" as="targetPoint" />
          </mxGeometry>
        </mxCell>
        <mxCell id="LkZ5-12aS9HRBS8gZSQW-20" value="32-bit" style="edgeLabel;html=1;align=center;verticalAlign=middle;resizable=0;points=[];fontFamily=Iosevka Term extended;" parent="LkZ5-12aS9HRBS8gZSQW-19" vertex="1" connectable="0">
          <mxGeometry x="-0.1861" y="-2" relative="1" as="geometry">
            <mxPoint x="2" y="83" as="offset" />
          </mxGeometry>
        </mxCell>
        <mxCell id="LkZ5-12aS9HRBS8gZSQW-21" value="16KiB D$&lt;div&gt;4-way SA&lt;/div&gt;" style="rounded=0;whiteSpace=wrap;html=1;fontFamily=Iosevka Term extended;fillColor=#ffe6cc;strokeColor=#d79b00;dashed=1;" parent="1" vertex="1">
          <mxGeometry x="384" y="245" width="70" height="60" as="geometry" />
        </mxCell>
        <mxCell id="LkZ5-12aS9HRBS8gZSQW-22" value="" style="endArrow=none;html=1;rounded=0;entryX=0.5;entryY=0;entryDx=0;entryDy=0;strokeWidth=2;fontFamily=Iosevka Term extended;exitX=0.75;exitY=1;exitDx=0;exitDy=0;edgeStyle=orthogonalEdgeStyle;" parent="1" source="LkZ5-12aS9HRBS8gZSQW-14" target="LkZ5-12aS9HRBS8gZSQW-21" edge="1">
          <mxGeometry width="50" height="50" relative="1" as="geometry">
            <mxPoint x="350" y="255" as="sourcePoint" />
            <mxPoint x="333" y="288" as="targetPoint" />
          </mxGeometry>
        </mxCell>
        <mxCell id="LkZ5-12aS9HRBS8gZSQW-23" value="32-bit" style="edgeLabel;html=1;align=center;verticalAlign=middle;resizable=0;points=[];fontFamily=Iosevka Term extended;" parent="LkZ5-12aS9HRBS8gZSQW-22" vertex="1" connectable="0">
          <mxGeometry x="-0.1861" y="-2" relative="1" as="geometry">
            <mxPoint x="12" y="1" as="offset" />
          </mxGeometry>
        </mxCell>
        <mxCell id="LkZ5-12aS9HRBS8gZSQW-24" value="" style="endArrow=none;html=1;rounded=0;strokeWidth=2;fontFamily=Iosevka Term extended;edgeStyle=orthogonalEdgeStyle;entryX=0.5;entryY=0;entryDx=0;entryDy=0;exitX=0.5;exitY=1;exitDx=0;exitDy=0;" parent="1" source="hjEv2SJ0Xj4vH1zsthkF-1" target="PN_kPtdczEujCwIuME3x-30" edge="1">
          <mxGeometry width="50" height="50" relative="1" as="geometry">
            <mxPoint x="550" y="340" as="sourcePoint" />
            <mxPoint x="732" y="401" as="targetPoint" />
            <Array as="points">
              <mxPoint x="419" y="370" />
              <mxPoint x="695" y="370" />
            </Array>
          </mxGeometry>
        </mxCell>
        <mxCell id="LkZ5-12aS9HRBS8gZSQW-25" value="128-bit" style="edgeLabel;html=1;align=center;verticalAlign=middle;resizable=0;points=[];fontFamily=Iosevka Term extended;" parent="LkZ5-12aS9HRBS8gZSQW-24" vertex="1" connectable="0">
          <mxGeometry x="-0.1861" y="-2" relative="1" as="geometry">
            <mxPoint x="114" y="-2" as="offset" />
          </mxGeometry>
        </mxCell>
        <mxCell id="hjEv2SJ0Xj4vH1zsthkF-1" value="8-entry&lt;div&gt;Write buffer&lt;/div&gt;" style="rounded=0;whiteSpace=wrap;html=1;fontFamily=Iosevka Term extended;fillColor=#ffe6cc;strokeColor=#d79b00;dashed=1;" vertex="1" parent="1">
          <mxGeometry x="383" y="320" width="70" height="42.01" as="geometry" />
        </mxCell>
        <mxCell id="hjEv2SJ0Xj4vH1zsthkF-2" value="" style="endArrow=none;html=1;rounded=0;strokeWidth=2;fontFamily=Iosevka Term extended;edgeStyle=orthogonalEdgeStyle;exitX=0.5;exitY=1;exitDx=0;exitDy=0;entryX=0.5;entryY=0;entryDx=0;entryDy=0;" edge="1" parent="1" source="LkZ5-12aS9HRBS8gZSQW-21" target="hjEv2SJ0Xj4vH1zsthkF-1">
          <mxGeometry width="50" height="50" relative="1" as="geometry">
            <mxPoint x="463" y="311" as="sourcePoint" />
            <mxPoint x="463" y="351" as="targetPoint" />
            <Array as="points">
              <mxPoint x="419" y="320" />
            </Array>
          </mxGeometry>
        </mxCell>
      </root>
    </mxGraphModel>
  </diagram>
</mxfile>
